<?xml version="1.0" encoding="UTF-8"?>
<!DOCTYPE svg PUBLIC "-//W3C//DTD SVG 1.1//EN" "http://www.w3.org/Graphics/SVG/1.1/DTD/svg11.dtd">
<svg xmlns="http://www.w3.org/2000/svg" version="1.1" width="615px" height="561px" style="shape-rendering:geometricPrecision; text-rendering:geometricPrecision; image-rendering:optimizeQuality; fill-rule:evenodd; clip-rule:evenodd" xmlns:xlink="http://www.w3.org/1999/xlink">
<g><path style="opacity:1" fill="#1b3e75" d="M -0.5,-0.5 C 204.5,-0.5 409.5,-0.5 614.5,-0.5C 614.5,186.5 614.5,373.5 614.5,560.5C 409.5,560.5 204.5,560.5 -0.5,560.5C -0.5,373.5 -0.5,186.5 -0.5,-0.5 Z"/></g>
<g><path style="opacity:1" fill="#eff1f5" d="M 295.5,37.5 C 347.91,35.4475 387.41,56.7808 414,101.5C 432.726,140.952 431.726,179.952 411,218.5C 378.653,266.63 333.82,285.13 276.5,274C 225.05,257.277 195.55,222.11 188,168.5C 186,110.191 211.5,69.0241 264.5,45C 269.894,43.5353 275.228,41.8686 280.5,40C 285.706,39.5633 290.706,38.73 295.5,37.5 Z"/></g>
<g><path style="opacity:1" fill="#163c73" d="M 294.5,42.5 C 356.834,40.7231 398.334,69.0564 419,127.5C 428.947,173.654 416.78,212.821 382.5,245C 342.068,276.015 298.735,280.681 252.5,259C 203.787,228.24 184.953,184.406 196,127.5C 211.796,79.1909 244.629,50.8576 294.5,42.5 Z"/></g>
<g><path style="opacity:1" fill="#c5cddb" d="M 291.5,48.5 C 292.995,48.4148 293.995,49.0815 294.5,50.5C 293.167,51.8333 291.833,51.8333 290.5,50.5C 290.863,49.8165 291.196,49.1499 291.5,48.5 Z"/></g>
<g><path style="opacity:1" fill="#f3f5f8" d="M 295.5,63.5 C 296.265,66.0961 296.599,68.7628 296.5,71.5C 296.44,72.0431 296.107,72.3764 295.5,72.5C 294.828,71.0508 294.161,69.7175 293.5,68.5C 293.369,64.0478 292.702,59.7144 291.5,55.5C 292.302,54.1153 292.969,54.282 293.5,56C 294.016,58.6691 294.683,61.1691 295.5,63.5 Z"/></g>
<g><path style="opacity:1" fill="#b3bdd0" d="M 295.5,63.5 C 294.683,61.1691 294.016,58.6691 293.5,56C 292.969,54.282 292.302,54.1153 291.5,55.5C 290.624,55.6309 289.957,55.2975 289.5,54.5C 291.396,53.5344 293.396,53.2011 295.5,53.5C 295.5,56.8333 295.5,60.1667 295.5,63.5 Z"/></g>
<g><path style="opacity:1" fill="#ccd3e0" d="M 329.5,54.5 C 333.911,55.6927 338.244,57.1927 342.5,59C 341.167,63.6667 339.833,63.6667 338.5,59C 333.384,56.9552 331.551,58.7885 333,64.5C 334.889,65.0974 336.722,65.4307 338.5,65.5C 337.786,69.588 336.452,70.088 334.5,67C 333.207,66.51 331.873,66.3433 330.5,66.5C 330.167,69.1667 329.833,71.8333 329.5,74.5C 332.859,75.6236 335.859,75.6236 338.5,74.5C 338.135,75.9019 337.301,76.9019 336,77.5C 332.009,76.8356 328.176,75.6689 324.5,74C 328.355,67.9563 330.022,61.4563 329.5,54.5 Z"/></g>
<g><path style="opacity:1" fill="#d6dce6" d="M 351.5,62.5 C 355.008,63.5041 358.174,65.1707 361,67.5C 362.344,73.1762 360.178,75.8428 354.5,75.5C 354.335,78.8499 354.502,82.1832 355,85.5C 356.338,86.2236 356.505,86.8902 355.5,87.5C 353.803,86.6364 352.637,85.3031 352,83.5C 352.266,72.3639 350.1,71.6972 345.5,81.5C 341.324,80.1528 340.991,79.1528 344.5,78.5C 346.833,73.1667 349.167,67.8333 351.5,62.5 Z"/></g>
<g><path style="opacity:1" fill="#d3d8e3" d="M 246.5,65.5 C 247.5,65.5 248.5,65.5 249.5,65.5C 249.5,66.5 249.5,67.5 249.5,68.5C 248.5,68.5 247.5,68.5 246.5,68.5C 246.5,67.5 246.5,66.5 246.5,65.5 Z"/></g>
<g><path style="opacity:1" fill="#224378" d="M 354.5,65.5 C 357.955,66.1284 359.122,68.1284 358,71.5C 355.692,73.9826 353.192,74.1493 350.5,72C 351.719,69.7218 353.052,67.5551 354.5,65.5 Z"/></g>
<g><path style="opacity:1" fill="#e4e7ee" d="M 303.5,53.5 C 305.288,52.3775 307.288,52.2109 309.5,53C 308.978,53.5613 308.645,54.228 308.5,55C 309.571,59.3181 310.905,63.4848 312.5,67.5C 315.064,63.0419 317.064,58.3752 318.5,53.5C 319.873,53.3433 321.207,53.51 322.5,54C 318.47,59.8832 314.804,66.0499 311.5,72.5C 309.107,66.9885 307.107,61.3218 305.5,55.5C 305.253,54.2867 304.586,53.62 303.5,53.5 Z"/></g>
<g><path style="opacity:1" fill="#bdc6d6" d="M 242.5,68.5 C 243.995,68.4148 244.995,69.0815 245.5,70.5C 244.167,71.8333 242.833,71.8333 241.5,70.5C 241.863,69.8165 242.196,69.1499 242.5,68.5 Z"/></g>
<g><path style="opacity:1" fill="#e0e4ec" d="M 279.5,55.5 C 281.765,55.4406 282.098,56.2739 280.5,58C 282.794,63.2485 284.794,68.5819 286.5,74C 280.001,72.3293 274.168,69.1626 269,64.5C 269.682,69.6985 271.516,74.5318 274.5,79C 272.956,80.1871 271.289,80.5205 269.5,80C 270.719,77.7174 270.719,75.384 269.5,73C 268.491,68.6367 266.491,64.97 263.5,62C 264.93,60.5596 266.597,60.2263 268.5,61C 272.833,63.8333 277.167,66.6667 281.5,69.5C 281.833,69 282.167,68.5 282.5,68C 281.429,64.0194 279.762,60.3527 277.5,57C 278.416,56.7216 279.082,56.2216 279.5,55.5 Z"/></g>
<g><path style="opacity:1" fill="#b0bace" d="M 293.5,68.5 C 294.161,69.7175 294.828,71.0508 295.5,72.5C 296.107,72.3764 296.44,72.0431 296.5,71.5C 297.675,71.281 298.675,71.6143 299.5,72.5C 297.235,73.6474 294.902,73.8141 292.5,73C 293.38,71.6439 293.714,70.1439 293.5,68.5 Z"/></g>
<g><path style="opacity:1" fill="#dce1ea" d="M 369.5,94.5 C 368.127,94.6567 366.793,94.49 365.5,94C 366.416,93.7216 367.082,93.2216 367.5,92.5C 368.147,91.7261 368.48,90.7261 368.5,89.5C 366.831,85.6479 366.331,81.6479 367,77.5C 372.295,74.5358 376.461,75.8691 379.5,81.5C 378.833,82.8333 377.833,83.8333 376.5,84.5C 376.613,82.8276 376.279,80.9942 375.5,79C 373.422,76.8657 371.588,77.0323 370,79.5C 370.383,82.8112 371.217,86.1446 372.5,89.5C 372.243,91.6924 371.243,93.3591 369.5,94.5 Z"/></g>
<g><path style="opacity:1" fill="#f4f6f9" d="M 297.5,82.5 C 336.686,80.6596 363.853,97.6596 379,133.5C 387.891,166.797 379.391,194.63 353.5,217C 320.132,238.938 287.799,237.605 256.5,213C 235.425,191.546 228.258,166.046 235,136.5C 245.845,106.814 266.678,88.8143 297.5,82.5 Z"/></g>
<g><path style="opacity:1" fill="#d3d9e3" d="M 253.5,66.5 C 255.712,69.8661 258.212,73.1994 261,76.5C 264.096,85.4045 260.929,89.9045 251.5,90C 248.281,86.4482 245.448,82.6149 243,78.5C 238.596,77.3063 238.763,75.973 243.5,74.5C 246.623,78.5784 249.623,82.7451 252.5,87C 259.505,88.3236 262.005,85.4902 260,78.5C 257.48,74.984 254.647,71.8173 251.5,69C 252.381,68.2917 253.047,67.4584 253.5,66.5 Z"/></g>
<g><path style="opacity:1" fill="#bae2f9" d="M 298.5,87.5 C 335.217,86.0836 360.55,102.25 374.5,136C 383.023,169.94 373.023,196.94 344.5,217C 309.387,235.009 278.554,229.509 252,200.5C 233.187,172.34 232.854,144.007 251,115.5C 263.56,100.314 279.394,90.9807 298.5,87.5 Z"/></g>
<g><path style="opacity:1" fill="#c8cedd" d="M 388.5,85.5 C 389.5,85.5 390.5,85.5 391.5,85.5C 391.5,86.5 391.5,87.5 391.5,88.5C 390.5,88.5 389.5,88.5 388.5,88.5C 388.5,87.5 388.5,86.5 388.5,85.5 Z"/></g>
<g><path style="opacity:1" fill="#ced5e0" d="M 220.5,89.5 C 221.978,89.238 223.311,89.5713 224.5,90.5C 222.537,93.1939 221.203,92.8606 220.5,89.5 Z"/></g>
<g><path style="opacity:1" fill="#a9b5ca" d="M 367.5,92.5 C 367.082,93.2216 366.416,93.7216 365.5,94C 366.793,94.49 368.127,94.6567 369.5,94.5C 364.541,95.5142 360.875,93.5142 358.5,88.5C 359.167,87.1667 360.167,86.1667 361.5,85.5C 361.654,86.9091 361.821,88.5758 362,90.5C 363.444,92.1554 365.278,92.822 367.5,92.5 Z"/></g>
<g><path style="opacity:1" fill="#dadfe8" d="M 226.5,90.5 C 230.456,96.2737 235.789,100.44 242.5,103C 241.213,104.41 240.046,105.91 239,107.5C 234.608,102.278 229.442,97.9445 223.5,94.5C 224.524,93.1482 225.524,91.8149 226.5,90.5 Z"/></g>
<g><path style="opacity:1" fill="#e2e6ed" d="M 385.5,88.5 C 386.627,89.1217 387.627,89.955 388.5,91C 382.634,94.5371 377.801,99.0371 374,104.5C 372.647,103.315 371.48,101.981 370.5,100.5C 376.114,97.2138 381.114,93.2138 385.5,88.5 Z"/></g>
<g><path style="opacity:1" fill="#a8b5ca" d="M 397.5,103.5 C 396.833,103.833 396.167,104.167 395.5,104.5C 394.843,101.441 392.843,99.9405 389.5,100C 393.861,96.4543 396.528,97.6209 397.5,103.5 Z"/></g>
<g><path style="opacity:1" fill="#d4dae4" d="M 218.5,101.5 C 222.367,106.566 225.701,112.066 228.5,118C 229.449,118.617 230.282,118.451 231,117.5C 231.833,115.833 232.667,114.167 233.5,112.5C 230.643,108.528 231.143,107.861 235,110.5C 235.667,111.5 235.667,112.5 235,113.5C 233.069,117.04 230.902,120.374 228.5,123.5C 225.252,117.336 221.752,111.336 218,105.5C 216.833,107.833 215.667,110.167 214.5,112.5C 217.214,115.213 216.547,116.046 212.5,115C 212.043,114.586 211.709,114.086 211.5,113.5C 213.845,109.472 216.178,105.472 218.5,101.5 Z"/></g>
<g><path style="opacity:1" fill="#d8dde7" d="M 397.5,103.5 C 399.156,106.139 400.822,108.805 402.5,111.5C 401.131,113.124 399.464,113.624 397.5,113C 399.871,110.816 399.704,108.65 397,106.5C 392.916,109.126 388.75,111.626 384.5,114C 383.773,115.399 383.273,116.899 383,118.5C 382.086,116.336 380.919,114.336 379.5,112.5C 385.16,110.337 390.494,107.67 395.5,104.5C 396.167,104.167 396.833,103.833 397.5,103.5 Z"/></g>
<g><path style="opacity:1" fill="#375a8c" d="M 355.5,120.5 C 358.91,120.384 360.244,122.05 359.5,125.5C 355.065,126.078 353.732,124.411 355.5,120.5 Z"/></g>
<g><path style="opacity:1" fill="#d1d7e3" d="M 404.5,119.5 C 406.725,122.812 408.392,126.478 409.5,130.5C 408.131,132.124 406.464,132.624 404.5,132C 406.673,130.135 407.007,127.969 405.5,125.5C 403.229,124.637 400.895,124.637 398.5,125.5C 398.329,127.993 399.329,129.826 401.5,131C 400.109,132.02 398.609,132.853 397,133.5C 397.207,131.249 397.373,128.915 397.5,126.5C 394.833,127.167 392.167,127.833 389.5,128.5C 389.342,132.412 391.008,135.079 394.5,136.5C 392.955,137.452 391.288,137.785 389.5,137.5C 388.535,133.129 387.701,128.796 387,124.5C 388.726,125.576 390.559,125.743 392.5,125C 396.98,123.922 400.98,122.089 404.5,119.5 Z"/></g>
<g><path style="opacity:1" fill="#d5dae5" d="M 226.5,126.5 C 227.621,128.089 227.454,129.756 226,131.5C 220.738,129.069 217.905,130.735 217.5,136.5C 218.817,139.701 220.984,140.701 224,139.5C 224.442,141.684 223.942,143.684 222.5,145.5C 221.738,144.372 221.071,143.205 220.5,142C 215.729,138.862 211.229,135.362 207,131.5C 206.517,130.552 206.351,129.552 206.5,128.5C 213.386,128.603 220.053,127.936 226.5,126.5 Z"/></g>
<g><path style="opacity:1" fill="#1f4378" d="M 210.5,132.5 C 212.628,131.371 214.961,131.204 217.5,132C 216.929,133.205 216.262,134.372 215.5,135.5C 213.64,134.74 211.973,133.74 210.5,132.5 Z"/></g>
<g><path style="opacity:1" fill="#22477d" d="M 337.5,144.5 C 337.832,153.004 334.499,159.838 327.5,165C 326.552,165.483 325.552,165.649 324.5,165.5C 324.337,163.143 324.503,160.81 325,158.5C 328.357,154.644 331.524,150.644 334.5,146.5C 332.303,144.482 329.636,143.315 326.5,143C 332.099,139.311 331.765,138.311 325.5,140C 323.615,142.222 321.449,144.056 319,145.5C 317.374,144.711 315.874,143.711 314.5,142.5C 312.078,144.65 309.411,144.983 306.5,143.5C 301.167,147.833 295.833,152.167 290.5,156.5C 286.413,172.395 278.746,186.228 267.5,198C 262.698,200.829 259.698,199.662 258.5,194.5C 258.842,192.133 259.342,189.8 260,187.5C 266.896,176.603 275.229,166.937 285,158.5C 287.035,152.728 288.869,146.894 290.5,141C 290.167,140.5 289.833,140 289.5,139.5C 283.249,143.753 276.416,146.753 269,148.5C 266.849,148.357 265.182,147.357 264,145.5C 263.542,142.442 263.876,139.442 265,136.5C 269.122,130.709 273.622,125.209 278.5,120C 284.275,116.561 290.275,113.561 296.5,111C 308.81,107.954 311.977,111.788 306,122.5C 303.42,127.084 300.087,131.084 296,134.5C 294.399,139.804 292.899,145.138 291.5,150.5C 291.833,151.167 292.167,151.833 292.5,152.5C 296.811,149.357 300.978,146.023 305,142.5C 303.921,135.91 306.754,132.743 313.5,133C 314.966,133.635 316.3,134.469 317.5,135.5C 318.736,134.754 320.07,134.421 321.5,134.5C 321.415,136.929 320.415,138.929 318.5,140.5C 318.833,140.833 319.167,141.167 319.5,141.5C 323.24,138.733 326.907,136.067 330.5,133.5C 330.5,134.5 330.5,135.5 330.5,136.5C 333.252,136.422 335.918,136.255 338.5,136C 335.98,137.763 333.647,139.763 331.5,142C 333.407,143.122 335.407,143.955 337.5,144.5 Z"/></g>
<g><path style="opacity:1" fill="#b5ddf5" d="M 298.5,112.5 C 305.377,112.281 307.21,115.281 304,121.5C 296.548,132.281 286.715,140.114 274.5,145C 271.833,145.667 269.167,145.667 266.5,145C 265.446,143.612 265.28,142.112 266,140.5C 273.393,127.071 284.227,117.737 298.5,112.5 Z"/></g>
<g><path style="opacity:1" fill="#274b80" d="M 337.5,144.5 C 339.785,140.79 342.452,137.29 345.5,134C 346.448,133.517 347.448,133.351 348.5,133.5C 348.5,135.167 348.5,136.833 348.5,138.5C 349.5,138.5 350.5,138.5 351.5,138.5C 351.5,139.5 351.5,140.5 351.5,141.5C 348.71,141.778 346.21,141.111 344,139.5C 341.683,140.985 339.516,142.652 337.5,144.5 Z"/></g>
<g><path style="opacity:1" fill="#add4ee" d="M 311.5,134.5 C 313.722,134.559 314.722,135.725 314.5,138C 313.505,140.827 311.505,142.327 308.5,142.5C 309.063,139.626 310.063,136.96 311.5,134.5 Z"/></g>
<g><path style="opacity:1" fill="#dadfe8" d="M 403.5,140.5 C 410.913,140.26 413.913,143.927 412.5,151.5C 410.801,151.66 409.134,151.494 407.5,151C 410.006,149.484 410.84,147.318 410,144.5C 407.733,143.065 405.733,143.398 404,145.5C 403.438,148.872 401.938,151.705 399.5,154C 396.113,154.81 393.613,153.644 392,150.5C 391.502,147.518 391.335,144.518 391.5,141.5C 393.288,141.215 394.955,141.548 396.5,142.5C 392.643,143.587 391.643,145.921 393.5,149.5C 395.353,150.76 397.186,150.76 399,149.5C 399.986,146.194 401.486,143.194 403.5,140.5 Z"/></g>
<g><path style="opacity:1" fill="#8799b6" d="M 215.5,148.5 C 214.167,149.5 214.167,150.5 215.5,151.5C 213.963,154.001 213.296,153.501 213.5,150C 213.833,148.833 214.167,147.667 214.5,146.5C 215.298,146.957 215.631,147.624 215.5,148.5 Z"/></g>
<g><path style="opacity:1" fill="#a0c7e3" d="M 332.5,151.5 C 333.097,151.735 333.43,152.235 333.5,153C 332.364,156.804 330.031,159.138 326.5,160C 328.72,157.287 330.72,154.454 332.5,151.5 Z"/></g>
<g><path style="opacity:1" fill="#d1d7e3" d="M 215.5,151.5 C 214.167,150.5 214.167,149.5 215.5,148.5C 223.064,147.09 225.564,150.09 223,157.5C 220.07,165.049 214.903,167.216 207.5,164C 202.952,159.868 201.285,154.701 202.5,148.5C 206.555,148.648 207.055,149.648 204,151.5C 204.253,161.449 209.087,164.283 218.5,160C 221.125,157.804 222.125,154.97 221.5,151.5C 219.5,151.5 217.5,151.5 215.5,151.5 Z"/></g>
<g><path style="opacity:1" fill="#e7eaf0" d="M 392.5,158.5 C 395.569,159.743 398.902,160.409 402.5,160.5C 405.939,160.446 409.106,159.78 412,158.5C 412.667,160.833 412.667,163.167 412,165.5C 411.5,165 411,164.5 410.5,164C 404.584,163.193 398.75,163.359 393,164.5C 392.505,162.527 392.338,160.527 392.5,158.5 Z"/></g>
<g><path style="opacity:1" fill="#cbd2df" d="M 414.5,160.5 C 417.861,161.203 418.194,162.537 415.5,164.5C 414.571,163.311 414.238,161.978 414.5,160.5 Z"/></g>
<g><path style="opacity:1" fill="#b1d9f2" d="M 282.5,163.5 C 280.377,175.584 275.044,186.418 266.5,196C 261.448,198.62 259.614,197.12 261,191.5C 266.48,180.875 273.646,171.542 282.5,163.5 Z"/></g>
<g><path style="opacity:1" fill="#dde1ea" d="M 286.5,253.5 C 285.539,255.265 285.205,257.265 285.5,259.5C 284.167,259.5 282.833,259.5 281.5,259.5C 279.15,258.89 279.483,258.556 282.5,258.5C 282.927,255.624 283.594,252.791 284.5,250C 284.241,248.739 283.574,247.739 282.5,247C 284.134,246.506 285.801,246.34 287.5,246.5C 287.326,248.861 286.993,251.194 286.5,253.5 Z"/></g>
<g><path style="opacity:1" fill="#cbd1df" d="M 308.5,248.5 C 317.471,248.848 318.804,252.348 312.5,259C 314.701,259.825 316.534,259.325 318,257.5C 318.494,259.134 318.66,260.801 318.5,262.5C 314.486,262.666 310.486,262.499 306.5,262C 309.219,259.618 311.553,256.951 313.5,254C 313.355,253.228 313.022,252.561 312.5,252C 310.5,251.667 308.5,251.333 306.5,251C 307.381,250.292 308.047,249.458 308.5,248.5 Z"/></g>
<g><path style="opacity:1" fill="#dce1e9" d="M 327.5,240.5 C 328.239,240.369 328.906,240.536 329.5,241C 320.913,247.151 321.579,249.818 331.5,249C 335.5,252.667 335.5,256.333 331.5,260C 324.14,262.299 320.473,259.632 320.5,252C 320.586,246.758 322.919,242.924 327.5,240.5 Z"/></g>
<g><path style="opacity:1" fill="#204278" d="M 324.5,250.5 C 330.71,250.041 332.71,252.708 330.5,258.5C 326.382,259.752 324.049,258.085 323.5,253.5C 323.685,252.416 324.018,251.416 324.5,250.5 Z"/></g>
<g><path style="opacity:1" fill="#d5dae5" d="M 293.5,248.5 C 303.118,248.271 306.284,252.604 303,261.5C 299.879,266.148 295.712,268.148 290.5,267.5C 294.272,266.586 297.272,264.586 299.5,261.5C 290.161,260.408 288.161,256.075 293.5,248.5 Z"/></g>
<g><path style="opacity:1" fill="#2a487c" d="M 294.5,250.5 C 301.486,250.331 303.153,253.164 299.5,259C 295.707,260.052 293.707,258.552 293.5,254.5C 293.846,253.151 294.179,251.817 294.5,250.5 Z"/></g>
<g><path style="opacity:1" fill="#778bac" d="M 286.5,253.5 C 286.244,255.792 286.577,257.959 287.5,260C 285.288,260.789 283.288,260.622 281.5,259.5C 282.833,259.5 284.167,259.5 285.5,259.5C 285.205,257.265 285.539,255.265 286.5,253.5 Z"/></g>
<g><path style="opacity:1" fill="#f6f7f9" d="M 259.5,366.5 C 266.304,365.221 270.304,367.888 271.5,374.5C 268.566,382.856 263.399,384.523 256,379.5C 253.348,374.039 254.514,369.706 259.5,366.5 Z"/></g>
<g><path style="opacity:1" fill="#fafbfc" d="M 443.5,366.5 C 443.169,374.528 443.502,382.528 444.5,390.5C 445.107,390.376 445.44,390.043 445.5,389.5C 456.935,383.777 466.101,386.443 473,397.5C 476.752,408.485 474.585,417.985 466.5,426C 458.509,431.145 451.009,430.645 444,424.5C 443.51,425.793 443.343,427.127 443.5,428.5C 438.833,428.5 434.167,428.5 429.5,428.5C 429.5,407.833 429.5,387.167 429.5,366.5C 434.167,366.5 438.833,366.5 443.5,366.5 Z"/></g>
<g><path style="opacity:1" fill="#7e92b1" d="M 443.5,366.5 C 444.167,374.167 444.833,381.833 445.5,389.5C 445.44,390.043 445.107,390.376 444.5,390.5C 443.502,382.528 443.169,374.528 443.5,366.5 Z"/></g>
<g><path style="opacity:1" fill="#f6f7f9" d="M 486.5,366.5 C 493.304,365.221 497.304,367.888 498.5,374.5C 495.566,382.856 490.399,384.523 483,379.5C 480.348,374.039 481.514,369.706 486.5,366.5 Z"/></g>
<g><path style="opacity:1" fill="#fefffe" d="M 507.5,366.5 C 512.167,366.5 516.833,366.5 521.5,366.5C 521.5,387.167 521.5,407.833 521.5,428.5C 516.833,428.5 512.167,428.5 507.5,428.5C 507.5,407.833 507.5,387.167 507.5,366.5 Z"/></g>
<g><path style="opacity:1" fill="#f9fafb" d="M 113.5,367.5 C 125.749,365.527 136.083,369.027 144.5,378C 140.833,381.167 137.167,384.333 133.5,387.5C 125.61,379.9 117.443,379.567 109,386.5C 102.74,395.974 103.574,404.808 111.5,413C 117.662,415.929 123.995,416.263 130.5,414C 132.213,412.622 133.547,410.955 134.5,409C 128.843,408.501 123.176,408.334 117.5,408.5C 117.5,404.5 117.5,400.5 117.5,396.5C 128.5,396.5 139.5,396.5 150.5,396.5C 149.868,420.631 137.535,431.464 113.5,429C 95.9705,423.114 88.1372,410.947 90,392.5C 93.6074,380.063 101.441,371.73 113.5,367.5 Z"/></g>
<g><path style="opacity:1" fill="#f9fafb" d="M 306.5,368.5 C 311.099,368.2 315.599,368.533 320,369.5C 325.527,381.082 330.86,392.749 336,404.5C 341.527,392.918 346.86,381.251 352,369.5C 356.401,368.533 360.901,368.2 365.5,368.5C 368.126,388.464 370.459,408.464 372.5,428.5C 367.5,428.5 362.5,428.5 357.5,428.5C 356.233,418.461 354.733,408.461 353,398.5C 349.227,405.712 345.727,413.045 342.5,420.5C 338.285,421.798 334.118,421.798 330,420.5C 326.333,413.167 322.667,405.833 319,398.5C 317.39,408.491 315.89,418.491 314.5,428.5C 309.5,428.5 304.5,428.5 299.5,428.5C 301.669,408.481 304.002,388.481 306.5,368.5 Z"/></g>
<g><path style="opacity:1" fill="#f9fafb" d="M 393.5,386.5 C 406.563,384.611 415.73,389.611 421,401.5C 422.886,421.615 413.719,430.781 393.5,429C 382.144,424.795 376.977,416.628 378,404.5C 379.839,395.503 385.006,389.503 393.5,386.5 Z"/></g>
<g><path style="opacity:1" fill="#fbfbfc" d="M 170.5,386.5 C 176.279,385.708 181.446,387.041 186,390.5C 186.483,389.552 186.649,388.552 186.5,387.5C 191.167,387.5 195.833,387.5 200.5,387.5C 200.5,401.167 200.5,414.833 200.5,428.5C 195.833,428.5 191.167,428.5 186.5,428.5C 186.649,427.448 186.483,426.448 186,425.5C 173.252,432.585 163.586,429.585 157,416.5C 153.14,402.564 157.64,392.564 170.5,386.5 Z"/></g>
<g><path style="opacity:1" fill="#fcfdfd" d="M 230.5,414.5 C 229.957,414.56 229.624,414.893 229.5,415.5C 235.128,416.495 240.794,416.829 246.5,416.5C 246.5,420.5 246.5,424.5 246.5,428.5C 234.167,428.5 221.833,428.5 209.5,428.5C 209.335,424.818 209.501,421.152 210,417.5C 215.051,411.905 220.218,406.405 225.5,401C 220.511,400.501 215.511,400.334 210.5,400.5C 210.5,396.167 210.5,391.833 210.5,387.5C 222.5,387.5 234.5,387.5 246.5,387.5C 246.665,391.182 246.499,394.848 246,398.5C 240.603,403.729 235.436,409.062 230.5,414.5 Z"/></g>
<g><path style="opacity:1" fill="#f5f6f9" d="M 255.5,387.5 C 260.5,387.5 265.5,387.5 270.5,387.5C 270.5,401.167 270.5,414.833 270.5,428.5C 265.5,428.5 260.5,428.5 255.5,428.5C 255.5,414.833 255.5,401.167 255.5,387.5 Z"/></g>
<g><path style="opacity:1" fill="#f5f6f9" d="M 482.5,387.5 C 487.5,387.5 492.5,387.5 497.5,387.5C 497.5,401.167 497.5,414.833 497.5,428.5C 492.5,428.5 487.5,428.5 482.5,428.5C 482.5,414.833 482.5,401.167 482.5,387.5 Z"/></g>
<g><path style="opacity:1" fill="#1f4076" d="M 175.5,399.5 C 185.079,399.998 188.079,404.665 184.5,413.5C 179.179,417.934 174.679,417.267 171,411.5C 169.309,406.131 170.809,402.131 175.5,399.5 Z"/></g>
<g><path style="opacity:1" fill="#1f4077" d="M 397.5,399.5 C 406.192,399.701 409.359,404.035 407,412.5C 401.514,418.08 396.514,417.747 392,411.5C 390.894,406.051 392.727,402.051 397.5,399.5 Z"/></g>
<g><path style="opacity:1" fill="#1e4076" d="M 449.5,399.5 C 458.386,399.865 461.552,404.198 459,412.5C 453.837,418.062 449.171,417.729 445,411.5C 443.309,406.131 444.809,402.131 449.5,399.5 Z"/></g>
<g><path style="opacity:1" fill="#b7c2d4" d="M 230.5,414.5 C 235.833,415.167 241.167,415.833 246.5,416.5C 240.794,416.829 235.128,416.495 229.5,415.5C 229.624,414.893 229.957,414.56 230.5,414.5 Z"/></g>
<g><path style="opacity:1" fill="#edeff4" d="M 87.5,462.5 C 96.4314,462.312 99.598,466.646 97,475.5C 96.3922,479.461 94.2256,480.961 90.5,480C 89.9781,479.439 89.6448,478.772 89.5,478C 92.0765,474.266 93.0765,470.1 92.5,465.5C 87.9774,465.345 84.8107,467.345 83,471.5C 76.8246,481.885 74.9913,492.885 77.5,504.5C 81.8391,506.083 85.0058,504.75 87,500.5C 89.0347,497.439 90.2014,494.105 90.5,490.5C 87.8728,491.092 85.2062,491.425 82.5,491.5C 82.5,490.167 82.5,488.833 82.5,487.5C 87.8049,486.806 93.1383,486.472 98.5,486.5C 95.5671,491.024 93.0671,496.024 91,501.5C 88.8333,503.667 86.6667,505.833 84.5,508C 77.8546,510.596 73.3546,508.429 71,501.5C 68.6609,484.977 74.1609,471.977 87.5,462.5 Z"/></g>
<g><path style="opacity:1" fill="#e6e9f0" d="M 176.5,467.5 C 177.5,467.5 178.5,467.5 179.5,467.5C 180.401,471.241 179.068,473.241 175.5,473.5C 175.325,471.379 175.659,469.379 176.5,467.5 Z"/></g>
<g><path style="opacity:1" fill="#e3e7ee" d="M 151.5,467.5 C 156.394,468.54 156.727,470.54 152.5,473.5C 150.261,471.867 149.928,469.867 151.5,467.5 Z"/></g>
<g><path style="opacity:1" fill="#ebeef3" d="M 468.5,488.5 C 467.542,488.953 466.708,489.619 466,490.5C 465.39,493.827 464.89,497.161 464.5,500.5C 463.167,500.5 461.833,500.5 460.5,500.5C 461.014,498.488 461.18,496.488 461,494.5C 452.53,503.549 448.53,501.883 449,489.5C 449.511,487.122 450.178,484.788 451,482.5C 452.493,480.44 454.326,480.107 456.5,481.5C 454.343,486.301 453.01,491.301 452.5,496.5C 457.258,495.586 460.758,492.919 463,488.5C 465.094,480.692 466.927,472.858 468.5,465C 470.925,464.014 472.591,464.681 473.5,467C 471.736,472.518 470.236,478.018 469,483.5C 470.62,481.274 472.786,479.94 475.5,479.5C 480.492,481.877 480.659,484.877 476,488.5C 475.179,491.554 475.345,494.554 476.5,497.5C 479.981,495.554 482.815,492.887 485,489.5C 486.166,485.179 487.332,480.846 488.5,476.5C 477.578,473.779 477.912,472.446 489.5,472.5C 489.211,467.916 491.211,465.249 495.5,464.5C 495.5,466.833 495.5,469.167 495.5,471.5C 497.857,471.337 500.19,471.503 502.5,472C 503.973,472.71 504.64,473.876 504.5,475.5C 501.14,475.384 497.807,475.051 494.5,474.5C 493.369,480.06 491.536,485.393 489,490.5C 488.242,492.769 488.409,494.936 489.5,497C 493.366,496.179 496.533,494.013 499,490.5C 500.092,487.291 501.259,484.124 502.5,481C 503.793,480.51 505.127,480.343 506.5,480.5C 504.992,485.711 503.992,491.044 503.5,496.5C 511.237,493.579 515.404,487.912 516,479.5C 517.224,476.527 519.224,475.86 522,477.5C 522.72,479.112 522.554,480.612 521.5,482C 527.047,481.704 528.88,484.204 527,489.5C 524.648,491.674 523.481,494.341 523.5,497.5C 525.783,497.392 527.783,496.559 529.5,495C 530.622,492.876 532.122,491.043 534,489.5C 536.785,481.698 538.951,473.698 540.5,465.5C 541.677,463.025 543.677,462.025 546.5,462.5C 543.85,472.098 541.35,481.765 539,491.5C 537.352,492.717 535.519,493.55 533.5,494C 531.129,496.706 528.463,499.039 525.5,501C 520.008,501.486 518.175,498.986 520,493.5C 521.167,491.167 522.333,488.833 523.5,486.5C 521.833,485.167 520.167,485.167 518.5,486.5C 515.985,491.543 512.985,496.21 509.5,500.5C 508.808,499.975 508.308,499.308 508,498.5C 503.293,501.514 500.293,500.18 499,494.5C 496.315,498.927 492.482,500.76 487.5,500C 485.959,498.421 484.792,496.587 484,494.5C 482.167,496.333 480.333,498.167 478.5,500C 476.635,501.301 474.635,501.635 472.5,501C 471.167,498.333 471.167,495.667 472.5,493C 468.564,493.256 467.231,491.756 468.5,488.5 Z"/></g>
<g><path style="opacity:1" fill="#e9ecf1" d="M 109.5,478.5 C 110.93,478.421 112.264,478.754 113.5,479.5C 114.248,481.332 115.248,482.999 116.5,484.5C 114.746,488.763 114.412,493.096 115.5,497.5C 118.959,494.585 121.959,491.252 124.5,487.5C 125.583,488.365 125.749,489.365 125,490.5C 122.537,493.965 119.704,497.131 116.5,500C 113.196,501.042 111.029,499.875 110,496.5C 107.151,500.553 103.818,501.22 100,498.5C 98.5956,489.643 101.762,482.976 109.5,478.5 Z"/></g>
<g><path style="opacity:1" fill="#ebeef3" d="M 291.5,464.5 C 293.167,464.5 294.833,464.5 296.5,464.5C 295.656,470.703 293.989,476.703 291.5,482.5C 291.667,482.833 291.833,483.167 292,483.5C 294.627,479.847 297.96,478.847 302,480.5C 302.667,482.167 302.667,483.833 302,485.5C 300.647,486.685 299.48,488.019 298.5,489.5C 299.758,491.648 299.758,493.815 298.5,496C 299.577,497.543 300.911,497.543 302.5,496C 304.5,493.667 306.5,491.333 308.5,489C 309.332,488.312 309.998,488.479 310.5,489.5C 307.462,494.705 303.296,498.705 298,501.5C 294.483,499.787 293.649,497.121 295.5,493.5C 294.311,492.571 292.978,492.238 291.5,492.5C 291.33,491.178 291.663,490.011 292.5,489C 296.87,489.15 298.203,487.316 296.5,483.5C 290.413,487.464 287.413,493.131 287.5,500.5C 286.022,500.762 284.689,500.429 283.5,499.5C 284.776,494.363 284.11,494.196 281.5,499C 277.035,501.769 274.535,500.603 274,495.5C 272.155,498.183 269.655,499.85 266.5,500.5C 263.797,499.961 262.297,498.295 262,495.5C 259.364,500.236 255.531,501.569 250.5,499.5C 249.978,498.393 249.645,497.226 249.5,496C 250.741,492.223 251.241,488.39 251,484.5C 245.79,488.076 242.79,493.076 242,499.5C 240.989,500.337 239.822,500.67 238.5,500.5C 238.923,496.304 239.59,492.137 240.5,488C 240.167,486.833 239.833,485.667 239.5,484.5C 237.851,485.648 236.351,486.981 235,488.5C 233.513,492.116 232.18,495.783 231,499.5C 229.644,500.38 228.144,500.714 226.5,500.5C 227.833,494.167 229.167,487.833 230.5,481.5C 232.766,481.141 234.599,481.808 236,483.5C 238.317,480.903 241.15,480.07 244.5,481C 245.191,482.067 245.691,483.234 246,484.5C 248.412,481.208 251.579,480.041 255.5,481C 256.333,486.587 256.333,492.087 255.5,497.5C 260.896,494.714 264.396,490.38 266,484.5C 268.42,480.376 271.92,478.543 276.5,479C 277.223,481.112 278.223,483.112 279.5,485C 275.514,498.989 277.68,500.489 286,489.5C 288.32,481.226 290.153,472.893 291.5,464.5 Z"/></g>
<g><path style="opacity:1" fill="#ebeef3" d="M 442.5,465.5 C 444.5,465.5 446.5,465.5 448.5,465.5C 445.984,477.227 443.318,488.894 440.5,500.5C 439.167,500.5 437.833,500.5 436.5,500.5C 436.762,499.022 436.429,497.689 435.5,496.5C 433.654,499.591 430.987,500.757 427.5,500C 426.773,498.601 426.273,497.101 426,495.5C 424.155,498.183 421.655,499.85 418.5,500.5C 415.797,499.961 414.297,498.295 414,495.5C 407.928,501.985 402.094,501.985 396.5,495.5C 394.241,497.545 391.741,499.211 389,500.5C 385.636,499.455 383.969,497.122 384,493.5C 381.64,497.351 378.307,500.018 374,501.5C 370.332,500.496 368.998,498.163 370,494.5C 371.167,492.167 372.333,489.833 373.5,487.5C 372.372,486.738 371.205,486.071 370,485.5C 366.915,490.672 363.581,495.672 360,500.5C 360.854,494.603 363.021,489.103 366.5,484C 365.328,482.132 365.495,480.298 367,478.5C 371.489,475.457 373.322,476.791 372.5,482.5C 375.864,481.873 377.864,483.206 378.5,486.5C 376.544,490.075 374.878,493.742 373.5,497.5C 377.503,497.029 380.669,495.029 383,491.5C 384.637,488.283 385.97,484.95 387,481.5C 388.356,480.62 389.856,480.286 391.5,480.5C 389.674,485.655 388.674,490.989 388.5,496.5C 391.614,495.909 394.114,494.242 396,491.5C 397.241,486.165 400.074,481.998 404.5,479C 410,477.833 412.167,480 411,485.5C 409.89,487.037 408.39,487.703 406.5,487.5C 406.178,485.278 406.845,483.444 408.5,482C 403.622,483.501 400.955,487.001 400.5,492.5C 400.904,497.013 403.237,498.513 407.5,497C 412.989,494.532 416.489,490.365 418,484.5C 420.42,480.376 423.92,478.543 428.5,479C 429.223,481.112 430.223,483.112 431.5,485C 427.514,498.989 429.68,500.489 438,489.5C 440.459,481.666 441.959,473.666 442.5,465.5 Z"/></g>
<g><path style="opacity:1" fill="#ebedf3" d="M 163.5,465.5 C 165.5,465.5 167.5,465.5 169.5,465.5C 166.984,477.227 164.318,488.894 161.5,500.5C 160.167,500.5 158.833,500.5 157.5,500.5C 157.66,498.801 157.494,497.134 157,495.5C 154.656,497.181 152.323,498.848 150,500.5C 147.47,499.906 145.47,498.572 144,496.5C 142.056,497.439 140.389,498.773 139,500.5C 137.744,508.513 134.244,515.346 128.5,521C 123.18,522.832 120.513,520.999 120.5,515.5C 120.967,509.738 123.633,505.238 128.5,502C 131.329,500.753 133.995,499.253 136.5,497.5C 133.772,496.06 131.605,496.726 130,499.5C 128.322,498.534 127.655,497.201 128,495.5C 131.79,492.547 134.623,488.88 136.5,484.5C 133.529,483.325 130.696,483.658 128,485.5C 125.83,483.003 126.33,481.17 129.5,480C 133.167,479.333 136.833,479.333 140.5,480C 140.743,484.715 139.077,488.882 135.5,492.5C 136.689,493.429 138.022,493.762 139.5,493.5C 139.351,494.552 139.517,495.552 140,496.5C 144.637,493.049 146.971,488.382 147,482.5C 148.444,480.845 150.278,480.178 152.5,480.5C 150.961,485.784 149.627,491.118 148.5,496.5C 152.886,495.634 156.386,493.301 159,489.5C 161.459,481.666 162.959,473.666 163.5,465.5 Z"/></g>
<g><path style="opacity:1" fill="#e9ecf2" d="M 172.5,480.5 C 174.288,480.215 175.955,480.548 177.5,481.5C 175.343,486.301 174.01,491.301 173.5,496.5C 178.43,495.415 182.097,492.581 184.5,488C 185.332,487.312 185.998,487.479 186.5,488.5C 183.727,492.777 180.393,496.61 176.5,500C 171.83,500.501 169.497,498.334 169.5,493.5C 170.032,489.042 171.032,484.708 172.5,480.5 Z"/></g>
<g><path style="opacity:1" fill="#edf0f4" d="M 222.5,465.5 C 224.167,465.5 225.833,465.5 227.5,465.5C 225.621,477.35 222.954,489.017 219.5,500.5C 217.365,500.853 216.032,500.02 215.5,498C 216.737,494.902 217.237,491.735 217,488.5C 215.758,489.872 214.258,490.872 212.5,491.5C 210.673,494.82 208.34,497.653 205.5,500C 199.327,501.328 196.327,498.828 196.5,492.5C 196.48,487.372 198.48,483.206 202.5,480C 208.961,478.952 212.295,481.785 212.5,488.5C 214.772,487.559 216.772,486.226 218.5,484.5C 220.602,478.324 221.935,471.991 222.5,465.5 Z"/></g>
<g><path style="opacity:1" fill="#eaedf2" d="M 330.5,478.5 C 331.93,478.421 333.264,478.754 334.5,479.5C 335.248,481.332 336.248,482.999 337.5,484.5C 335.746,488.763 335.412,493.096 336.5,497.5C 341.838,493.178 344.505,487.511 344.5,480.5C 346.167,480.5 347.833,480.5 349.5,480.5C 348.092,485.735 347.092,491.068 346.5,496.5C 351.106,495.363 353.94,492.363 355,487.5C 355.497,485.19 355.663,482.857 355.5,480.5C 357.167,480.5 358.833,480.5 360.5,480.5C 357.84,493.812 355.173,507.146 352.5,520.5C 350.052,520.99 348.385,520.157 347.5,518C 349.446,511.52 350.946,505.02 352,498.5C 347.57,501.631 343.903,500.964 341,496.5C 337.471,501.738 334.137,501.738 331,496.5C 328.151,500.553 324.818,501.22 321,498.5C 319.596,489.643 322.762,482.976 330.5,478.5 Z"/></g>
<g><path style="opacity:1" fill="#234379" d="M 108.5,482.5 C 112.168,485.61 112.501,489.277 109.5,493.5C 108.167,494.5 106.833,495.5 105.5,496.5C 104.348,493.894 104.182,491.227 105,488.5C 106.394,486.612 107.56,484.612 108.5,482.5 Z"/></g>
<g><path style="opacity:1" fill="#2c497d" d="M 204.5,482.5 C 205.675,482.281 206.675,482.614 207.5,483.5C 208.348,485.409 208.682,487.409 208.5,489.5C 203.59,489.424 202.257,487.09 204.5,482.5 Z"/></g>
<g><path style="opacity:1" fill="#25447a" d="M 271.5,482.5 C 273.078,483.066 274.412,484.066 275.5,485.5C 274.668,488.161 273.834,490.828 273,493.5C 268.207,497.639 266.54,496.306 268,489.5C 269.193,487.114 270.36,484.78 271.5,482.5 Z"/></g>
<g><path style="opacity:1" fill="#234379" d="M 329.5,482.5 C 333.168,485.61 333.501,489.277 330.5,493.5C 329.167,494.5 327.833,495.5 326.5,496.5C 325.348,493.894 325.182,491.227 326,488.5C 327.394,486.612 328.56,484.612 329.5,482.5 Z"/></g>
<g><path style="opacity:1" fill="#25447a" d="M 423.5,482.5 C 425.078,483.066 426.412,484.066 427.5,485.5C 426.668,488.161 425.834,490.828 425,493.5C 420.207,497.639 418.54,496.306 420,489.5C 421.193,487.114 422.36,484.78 423.5,482.5 Z"/></g>
<g><path style="opacity:1" fill="#224278" d="M 468.5,488.5 C 469.478,486.188 471.145,484.522 473.5,483.5C 474.401,487.272 472.734,488.938 468.5,488.5 Z"/></g>
<g><path style="opacity:1" fill="#27457a" d="M 200.5,490.5 C 202.308,491.907 204.308,493.074 206.5,494C 205.594,497.184 203.761,498.017 201,496.5C 200.505,494.527 200.338,492.527 200.5,490.5 Z"/></g>
<g><path style="opacity:1" fill="#e6eaf0" d="M 534.5,495.5 C 535.833,495.5 537.167,495.5 538.5,495.5C 538.265,499.803 535.931,501.47 531.5,500.5C 531.31,498.041 532.31,496.374 534.5,495.5 Z"/></g>
<g><path style="opacity:1" fill="#2a477c" d="M 133.5,501.5 C 134.239,501.369 134.906,501.536 135.5,502C 133.45,506.651 131.117,511.151 128.5,515.5C 127.672,516.415 126.672,517.081 125.5,517.5C 124.149,513.934 124.649,510.601 127,507.5C 129.335,505.6 131.502,503.6 133.5,501.5 Z"/></g>
</svg>
