<?xml version="1.0" standalone="no"?>
<!DOCTYPE svg PUBLIC "-//W3C//DTD SVG 20010904//EN"
 "http://www.w3.org/TR/2001/REC-SVG-20010904/DTD/svg10.dtd">
<svg version="1.0" xmlns="http://www.w3.org/2000/svg"
 width="157.000000pt" height="153.000000pt" viewBox="0 0 157.000000 153.000000"
 preserveAspectRatio="xMidYMid meet">

<g transform="translate(0.000000,153.000000) scale(0.100000,-0.100000)"
fill="#000000" stroke="none">
<path d="M0 765 l0 -765 785 0 785 0 0 765 0 765 -785 0 -785 0 0 -765z m1500
0 l0 -705 -725 0 -725 0 0 705 0 705 725 0 725 0 0 -705z"/>
<path d="M652 1305 c-97 -27 -222 -100 -283 -166 -71 -77 -129 -173 -129 -216
0 -37 29 -63 70 -63 38 1 148 42 205 78 27 17 51 30 52 28 3 -2 -24 -100 -52
-196 -3 -9 -49 -61 -103 -116 -110 -112 -205 -247 -223 -316 -11 -40 -10 -49
4 -72 23 -35 55 -33 103 5 84 66 199 261 244 415 21 70 22 71 119 151 82 68
102 80 125 76 15 -3 38 0 52 7 20 11 27 11 42 -3 27 -25 40 -21 88 23 44 41
74 51 74 26 0 -7 -10 -21 -22 -29 -20 -14 -20 -16 -5 -16 10 -1 34 -8 54 -16
l35 -15 -34 -43 c-66 -80 -95 -133 -90 -166 2 -17 7 -31 11 -31 17 0 55 37 96
94 37 52 45 71 45 108 0 38 5 49 38 81 38 37 38 37 70 22 17 -9 36 -14 42 -10
14 9 12 35 -2 33 -8 -2 -14 10 -16 30 -2 19 -9 32 -17 32 -8 0 -39 -31 -71
-69 l-56 -69 -30 17 -29 16 43 37 c23 20 39 40 35 44 -3 4 -13 1 -21 -5 -22
-19 -72 -10 -68 12 5 29 -14 20 -68 -33 -28 -27 -58 -50 -66 -50 -19 0 -18 6
8 40 26 36 14 59 -21 41 -17 -9 -24 -8 -41 9 -11 11 -29 20 -39 20 -28 0 -81
-48 -81 -73 0 -20 0 -20 15 -1 14 18 14 18 9 -3 -3 -12 -14 -30 -25 -42 -21
-22 -155 -131 -162 -131 -3 0 8 49 23 110 26 103 31 113 80 167 51 56 110 160
110 194 0 40 -61 55 -138 34z m83 -35 c17 -19 17 -22 0 -66 -35 -93 -212 -248
-337 -296 -154 -58 -167 39 -25 189 99 104 243 190 323 192 11 1 29 -8 39 -19z
m113 -252 c18 -18 15 -39 -10 -65 -24 -25 -58 -31 -58 -9 0 7 9 25 20 39 11
14 20 30 20 36 0 14 13 14 28 -1z m202 -268 c-59 -75 -60 -39 -1 39 20 26 27
31 29 18 2 -10 -11 -35 -28 -57z m-570 -87 c0 -18 -45 -125 -87 -206 -50 -97
-124 -187 -154 -187 -74 0 3 164 152 324 65 70 89 88 89 69z"/>
<path d="M1340 1170 c0 -26 38 -47 46 -25 9 23 -3 45 -26 45 -13 0 -20 -7 -20
-20z"/>
</g>
</svg>
