<?xml version="1.0" encoding="UTF-8"?>
<svg version="1.1" xmlns="http://www.w3.org/2000/svg" width="300" height="300">
<path d="M0 0 C0.74883453 -0.00570007 1.49766907 -0.01140015 2.26919556 -0.01727295 C3.85083631 -0.02667245 5.43249621 -0.0332367 7.01416016 -0.03710938 C9.37309514 -0.0467083 11.73111653 -0.07773414 14.08984375 -0.109375 C28.08896214 -0.207799 41.49730872 1.70812337 54.9140625 5.828125 C55.73793457 6.07973389 56.56180664 6.33134277 57.41064453 6.59057617 C76.70940101 12.75479363 93.79031199 22.95836436 109.0390625 36.203125 C109.89242187 36.93402344 110.74578125 37.66492187 111.625 38.41796875 C139.01823446 62.39758476 155.5025675 96.27040017 160.0390625 132.203125 C160.15108118 134.86543555 160.22597828 137.5018706 160.2421875 140.1640625 C160.24788757 140.91289703 160.25358765 141.66173157 160.25946045 142.43325806 C160.26885995 144.01489881 160.2754242 145.59655871 160.27929688 147.17822266 C160.2888958 149.53715764 160.31992164 151.89517903 160.3515625 154.25390625 C160.4499865 168.25302464 158.53406413 181.66137122 154.4140625 195.078125 C154.16245361 195.90199707 153.91084473 196.72586914 153.65161133 197.57470703 C147.67958217 216.27176586 137.83490953 233.35621324 125.0390625 248.203125 C124.21792969 249.15832031 123.39679688 250.11351562 122.55078125 251.09765625 C112.22498577 262.85490048 100.52038832 272.29314553 87.0390625 280.203125 C86.4001709 280.58210938 85.7612793 280.96109375 85.10302734 281.3515625 C65.70358165 292.7008333 42.67972132 300.26863622 20.078125 300.40625 C19.32929047 300.41195007 18.58045593 300.41765015 17.80892944 300.42352295 C16.22728869 300.43292245 14.64562879 300.4394867 13.06396484 300.44335938 C10.70502986 300.4529583 8.34700847 300.48398414 5.98828125 300.515625 C-33.22946562 300.79109399 -69.59988437 283.87545042 -97.45605469 256.74707031 C-122.38889375 231.67844996 -139.94625153 196.01531614 -140.1640625 160.2421875 C-140.16976257 159.49335297 -140.17546265 158.74451843 -140.18133545 157.97299194 C-140.19073495 156.39135119 -140.1972992 154.80969129 -140.20117188 153.22802734 C-140.2107708 150.86909236 -140.24179664 148.51107097 -140.2734375 146.15234375 C-140.37137107 132.20981619 -138.47626699 118.823445 -134.3984375 105.453125 C-134.15013184 104.63585937 -133.90182617 103.81859375 -133.64599609 102.9765625 C-127.42465961 83.51778933 -117.2678625 66.60206253 -103.9609375 51.203125 C-103.53409668 50.70780273 -103.10725586 50.21248047 -102.66748047 49.70214844 C-96.33790717 42.41214629 -89.70809584 36.01880003 -81.9609375 30.203125 C-80.51847656 29.11257812 -80.51847656 29.11257812 -79.046875 28 C-56.40165114 11.60371133 -28.23968142 0.17194225 0 0 Z " fill="#143B73" transform="translate(139.9609375,-0.203125)"/>
<path d="M0 0 C1.49003203 1.21597257 2.96885487 2.44578094 4.4375 3.6875 C5.2625 4.36683594 6.0875 5.04617187 6.9375 5.74609375 C23.00544885 19.48712927 34.2014324 40.56908376 36.4375 61.6875 C37.91727559 88.9118405 31.61849889 111.98998465 13.84375 133.0234375 C3.70344159 144.25020753 -8.56985007 152.04738572 -22.5625 157.6875 C-23.29726562 157.98398438 -24.03203125 158.28046875 -24.7890625 158.5859375 C-45.46072333 166.17807475 -70.11229825 164.45934728 -89.92358398 155.44262695 C-114.07813103 144.0063219 -130.24568861 125.72643061 -139.5625 100.6875 C-146.91294417 78.29161543 -144.8193875 54.61252873 -135.03125 33.36328125 C-123.32393962 10.47328053 -104.11875024 -6.16431339 -79.546875 -14.3125 C-52.56439063 -21.97965403 -22.45754477 -16.98009482 0 0 Z " fill="#BAE2F9" transform="translate(203.5625,77.3125)"/>
<path d="M0 0 C0.74883453 -0.00570007 1.49766907 -0.01140015 2.26919556 -0.01727295 C3.85083631 -0.02667245 5.43249621 -0.0332367 7.01416016 -0.03710938 C9.37309514 -0.0467083 11.73111653 -0.07773414 14.08984375 -0.109375 C28.08896214 -0.207799 41.49730872 1.70812337 54.9140625 5.828125 C55.73793457 6.07973389 56.56180664 6.33134277 57.41064453 6.59057617 C76.70940101 12.75479363 93.79031199 22.95836436 109.0390625 36.203125 C109.89242187 36.93402344 110.74578125 37.66492187 111.625 38.41796875 C139.01823446 62.39758476 155.5025675 96.27040017 160.0390625 132.203125 C160.15108118 134.86543555 160.22597828 137.5018706 160.2421875 140.1640625 C160.24788757 140.91289703 160.25358765 141.66173157 160.25946045 142.43325806 C160.26885995 144.01489881 160.2754242 145.59655871 160.27929688 147.17822266 C160.2888958 149.53715764 160.31992164 151.89517903 160.3515625 154.25390625 C160.4499865 168.25302464 158.53406413 181.66137122 154.4140625 195.078125 C154.16245361 195.90199707 153.91084473 196.72586914 153.65161133 197.57470703 C147.67958217 216.27176586 137.83490953 233.35621324 125.0390625 248.203125 C124.21792969 249.15832031 123.39679688 250.11351562 122.55078125 251.09765625 C112.22498577 262.85490048 100.52038832 272.29314553 87.0390625 280.203125 C86.4001709 280.58210938 85.7612793 280.96109375 85.10302734 281.3515625 C65.70358165 292.7008333 42.67972132 300.26863622 20.078125 300.40625 C19.32929047 300.41195007 18.58045593 300.41765015 17.80892944 300.42352295 C16.22728869 300.43292245 14.64562879 300.4394867 13.06396484 300.44335938 C10.70502986 300.4529583 8.34700847 300.48398414 5.98828125 300.515625 C-33.22946562 300.79109399 -69.59988437 283.87545042 -97.45605469 256.74707031 C-122.38889375 231.67844996 -139.94625153 196.01531614 -140.1640625 160.2421875 C-140.16976257 159.49335297 -140.17546265 158.74451843 -140.18133545 157.97299194 C-140.19073495 156.39135119 -140.1972992 154.80969129 -140.20117188 153.22802734 C-140.2107708 150.86909236 -140.24179664 148.51107097 -140.2734375 146.15234375 C-140.37137107 132.20981619 -138.47626699 118.823445 -134.3984375 105.453125 C-134.15013184 104.63585937 -133.90182617 103.81859375 -133.64599609 102.9765625 C-127.42465961 83.51778933 -117.2678625 66.60206253 -103.9609375 51.203125 C-103.53409668 50.70780273 -103.10725586 50.21248047 -102.66748047 49.70214844 C-96.33790717 42.41214629 -89.70809584 36.01880003 -81.9609375 30.203125 C-80.51847656 29.11257812 -80.51847656 29.11257812 -79.046875 28 C-56.40165114 11.60371133 -28.23968142 0.17194225 0 0 Z M-20.9609375 9.203125 C-22.82685547 9.63818359 -22.82685547 9.63818359 -24.73046875 10.08203125 C-50.82437287 16.50473268 -72.73157419 29.67761833 -91.9609375 48.203125 C-92.66605469 48.84507813 -93.37117188 49.48703125 -94.09765625 50.1484375 C-112.25696198 67.16588019 -123.71119774 91.53933763 -129.9609375 115.203125 C-130.28578125 116.22535156 -130.610625 117.24757813 -130.9453125 118.30078125 C-133.72912688 128.10866608 -134.32447091 138.1872687 -134.2734375 148.328125 C-134.26852295 149.50173584 -134.2636084 150.67534668 -134.25854492 151.88452148 C-134.12520033 161.89083625 -133.15831649 171.44468604 -130.9609375 181.203125 C-130.79464844 181.94820312 -130.62835938 182.69328125 -130.45703125 183.4609375 C-121.96039322 220.09088814 -98.85041191 252.52128844 -66.96728516 272.44921875 C-57.99285993 277.88642194 -48.74105699 282.39011639 -38.9609375 286.203125 C-38.21070312 286.49703125 -37.46046875 286.7909375 -36.6875 287.09375 C-31.71936249 288.8830409 -26.58803201 290.0891927 -21.4609375 291.328125 C-20.41039185 291.58456787 -20.41039185 291.58456787 -19.33862305 291.84619141 C-9.6425855 294.1112725 -0.14743899 294.38529426 9.7890625 294.390625 C10.975 294.40287109 12.1609375 294.41511719 13.3828125 294.42773438 C51.0442629 294.48940706 86.6425634 277.51750794 113.2265625 251.453125 C133.0118523 231.46779002 147.11719247 204.90513319 152.0390625 177.203125 C152.21493896 176.23938965 152.39081543 175.2756543 152.57202148 174.28271484 C153.91936996 166.34240507 154.39039284 158.62557312 154.3515625 150.578125 C154.34664795 149.35899414 154.3417334 148.13986328 154.33666992 146.88378906 C153.85790427 109.63336608 138.48273864 76.16449411 113.0390625 49.203125 C112.36617187 48.46578125 111.69328125 47.7284375 111 46.96875 C86.94964253 21.56724885 50.25059796 6.99188059 15.66796875 5.984375 C3.07664544 5.75267069 -8.73682635 6.06977198 -20.9609375 9.203125 Z " fill="#143B73" transform="translate(139.9609375,-0.203125)"/>
<path d="M0 0 C1.17361084 0.00491455 2.34722168 0.0098291 3.55639648 0.01489258 C13.56271125 0.14823717 23.11656104 1.11512101 32.875 3.3125 C33.62007812 3.47878906 34.36515625 3.64507812 35.1328125 3.81640625 C71.76276314 12.31304428 104.19316344 35.42302559 124.12109375 67.30615234 C129.55829694 76.28057757 134.06199139 85.53238051 137.875 95.3125 C138.16890625 96.06273438 138.4628125 96.81296875 138.765625 97.5859375 C140.5549159 102.55407501 141.7610677 107.68540549 143 112.8125 C143.17096191 113.51286377 143.34192383 114.21322754 143.51806641 114.93481445 C148.04444647 134.3106996 147.54832948 156.03248702 142.875 175.3125 C142.60816406 176.53066406 142.34132813 177.74882812 142.06640625 179.00390625 C136.01048454 204.38494704 122.68276137 226.44252129 104.875 245.3125 C104.20210937 246.04984375 103.52921875 246.7871875 102.8359375 247.546875 C80.52873237 271.1072939 45.21507007 287.1214698 12.84985352 288.43530273 C-30.48364496 289.48660581 -67.18014423 277.45913542 -99.125 247.3125 C-99.86234375 246.63960937 -100.5996875 245.96671875 -101.359375 245.2734375 C-126.76087615 221.22308003 -141.33624441 184.52403546 -142.34375 149.94140625 C-142.57545431 137.35008294 -142.25835302 125.53661115 -139.125 113.3125 C-138.83496094 112.06855469 -138.54492188 110.82460937 -138.24609375 109.54296875 C-131.82339232 83.44906463 -118.65050667 61.54186331 -100.125 42.3125 C-99.48304687 41.60738281 -98.84109375 40.90226562 -98.1796875 40.17578125 C-81.16224481 22.01647552 -56.78878737 10.56223976 -33.125 4.3125 C-32.10277344 3.98765625 -31.08054687 3.6628125 -30.02734375 3.328125 C-20.21945892 0.54431062 -10.1408563 -0.05103341 0 0 Z M-88.125 39.3125 C-88.95386719 40.00859375 -89.78273437 40.7046875 -90.63671875 41.421875 C-117.0640777 64.1568714 -133.39505246 97.67204624 -136.125 132.3125 C-137.86797201 170.39441179 -127.98990406 204.92246331 -103.125 234.3125 C-102.10986328 235.53066406 -102.10986328 235.53066406 -101.07421875 236.7734375 C-79.10389065 262.23813223 -47.3252593 278.08931985 -14.125 282.3125 C-9.24646437 282.60568205 -4.38644778 282.64656613 0.5 282.625 C1.15663635 282.62317719 1.81327271 282.62135437 2.48980713 282.61947632 C13.21664171 282.56949395 23.46487963 281.94482511 33.875 279.3125 C34.53532227 279.14621094 35.19564453 278.97992188 35.87597656 278.80859375 C56.78314892 273.31473824 75.46534536 263.32737917 91.875 249.3125 C92.68324219 248.63832031 93.49148437 247.96414062 94.32421875 247.26953125 C110.26368659 233.5320621 121.16748453 216.28597832 129.875 197.3125 C130.3596875 196.25675781 130.844375 195.20101562 131.34375 194.11328125 C135.35925216 184.55197884 137.10861266 174.48212053 138.875 164.3125 C139.13978149 162.88756226 139.13978149 162.88756226 139.40991211 161.43383789 C141.98646188 144.14187528 140.58497124 125.07798512 135.875 108.3125 C135.69308105 107.64798828 135.51116211 106.98347656 135.32373047 106.29882812 C129.81972657 86.76182769 119.90854359 69.75874155 106.875 54.3125 C105.86179688 53.09626953 105.86179688 53.09626953 104.828125 51.85546875 C83.45124582 27.08481495 49.67858907 8.84758271 16.875 6.3125 C-21.94017341 4.27418914 -58.48817044 13.27215206 -88.125 39.3125 Z " fill="#F5F7F9" transform="translate(148.125,5.6875)"/>
<path d="M0 0 C1.49003203 1.21597257 2.96885487 2.44578094 4.4375 3.6875 C5.2625 4.36683594 6.0875 5.04617187 6.9375 5.74609375 C23.00544885 19.48712927 34.2014324 40.56908376 36.4375 61.6875 C37.91727559 88.9118405 31.61849889 111.98998465 13.84375 133.0234375 C3.70344159 144.25020753 -8.56985007 152.04738572 -22.5625 157.6875 C-23.29726562 157.98398438 -24.03203125 158.28046875 -24.7890625 158.5859375 C-45.46072333 166.17807475 -70.11229825 164.45934728 -89.92358398 155.44262695 C-114.07813103 144.0063219 -130.24568861 125.72643061 -139.5625 100.6875 C-146.91294417 78.29161543 -144.8193875 54.61252873 -135.03125 33.36328125 C-123.32393962 10.47328053 -104.11875024 -6.16431339 -79.546875 -14.3125 C-52.56439063 -21.97965403 -22.45754477 -16.98009482 0 0 Z M-76.5625 -8.3125 C-77.54089844 -8.04566406 -78.51929688 -7.77882813 -79.52734375 -7.50390625 C-93.62949566 -3.33441324 -104.36238356 4.3831488 -114.5625 14.6875 C-115.29082031 15.39390625 -116.01914063 16.1003125 -116.76953125 16.828125 C-125.91300718 26.27818691 -132.32129861 39.02711666 -135.5625 51.6875 C-135.89701172 52.91533203 -135.89701172 52.91533203 -136.23828125 54.16796875 C-139.28811304 67.54988375 -138.67310057 82.65954819 -134.5625 95.6875 C-134.2221875 96.82445312 -133.881875 97.96140625 -133.53125 99.1328125 C-128.8982952 113.37601813 -120.98697428 124.23213839 -110.5625 134.6875 C-109.92957031 135.34363281 -109.29664062 135.99976563 -108.64453125 136.67578125 C-99.51654428 145.44106675 -86.69960653 151.57586221 -74.5625 154.6875 C-73.75554687 154.91050781 -72.94859375 155.13351563 -72.1171875 155.36328125 C-50.62729471 160.31471423 -28.02769787 155.78573921 -9.22265625 144.72265625 C11.13845161 131.33419888 24.49509681 112.10649538 29.70703125 88.15234375 C33.83895808 65.76142724 28.39857905 44.61707837 16.52734375 25.6328125 C2.72768052 5.62755123 -16.64796481 -5.99156303 -40.28515625 -10.875 C-52.4288151 -12.49608438 -64.8539135 -11.91394272 -76.5625 -8.3125 Z " fill="#F8F9FB" transform="translate(203.5625,77.3125)"/>
<path d="M0 0 C2.5 1.5 2.5 1.5 4 3 C3.4436563 11.71605126 -0.45358882 17.55634524 -6.5625 23.625 C-12.2371716 29.6484471 -13.36033762 36.14151452 -15 44 C-15.62854894 46.34639311 -16.30930595 48.67077634 -17 51 C-14.93063277 49.46691095 -12.86983103 47.92410147 -10.8125 46.375 C-10.23435547 45.94832031 -9.65621094 45.52164063 -9.06054688 45.08203125 C-5.09606411 42.08067141 -2.05620068 38.92528976 1 35 C0.01 35.495 0.01 35.495 -1 36 C-0.71454928 32.57459134 -0.17638186 31.1915003 2.1875 28.625 C5 27 5 27 8.3125 27.25 C9.199375 27.4975 10.08625 27.745 11 28 C11.495 29.485 11.495 29.485 12 31 C13.98 30.34 15.96 29.68 18 29 C18.495 30.485 18.495 30.485 19 32 C17.0625 35.1875 17.0625 35.1875 15 38 C16.44319692 37.09232898 17.87934106 36.17343894 19.3125 35.25 C20.11300781 34.73953125 20.91351563 34.2290625 21.73828125 33.703125 C24.08503891 32.10805424 24.08503891 32.10805424 25.60546875 29.796875 C26.06566406 29.20390625 26.52585937 28.6109375 27 28 C27.99 28 28.98 28 30 28 C29.67 29.32 29.34 30.64 29 32 C32.46941546 31.54177532 35.67395049 31.10868317 39 30 C37.50902342 33.7952131 35.24299151 35.61042731 32 38 C33.98 38.99 35.96 39.98 38 41 C38.24878906 40.43796875 38.49757813 39.8759375 38.75390625 39.296875 C40.20459325 36.62288141 41.9318185 34.53580462 43.9375 32.25 C44.62714844 31.45078125 45.31679687 30.6515625 46.02734375 29.828125 C48 28 48 28 51 28 C51.12375 28.969375 51.2475 29.93875 51.375 30.9375 C51.684375 32.4534375 51.684375 32.4534375 52 34 C52.66 34.33 53.32 34.66 54 35 C54 35.66 54 36.32 54 37 C50.66666667 37 47.33333333 37 44 37 C41.10599174 38.80671116 41.10599174 38.80671116 39 42 C38.70210508 44.21354957 38.70210508 44.21354957 38.6875 46.625 C38.3135865 54.43044428 32.92032078 59.73320048 27.92578125 65.3203125 C26 67 26 67 23 67 C22.00887274 64.21245459 21.62649294 62.88845457 22 60 C24.30357648 56.04447909 27.14441143 52.56814632 30 49 C31.38048669 47.02571492 32.68895574 45.02119323 34 43 C31.03 42.01 28.06 41.02 25 40 C25.99 39.01 26.98 38.02 28 37 C28.33 36.01 28.66 35.02 29 34 C24.02985259 36.62445078 24.02985259 36.62445078 19.875 40.3125 C19.25625 40.869375 18.6375 41.42625 18 42 C15.5 41.8125 15.5 41.8125 13 41 C11.6757713 40.63215869 10.34386088 40.28797019 9 40 C8.67 40.33 8.34 40.66 8 41 C6.865625 40.835 5.73125 40.67 4.5625 40.5 C0.12342083 40.42058892 -1.80258053 42.1697344 -5 45.125 C-5.763125 45.89070313 -6.52625 46.65640625 -7.3125 47.4453125 C-9.5439113 49.56645057 -11.55464702 51.03680501 -14.09375 52.71484375 C-18.79283856 56.17965014 -19.96961984 59.96081712 -21.5 65.4375 C-26.39050784 80.89895268 -34.36544661 99.49478889 -49 108 C-51.93346536 108.47754087 -53.25765353 108.43516862 -55.8125 106.9375 C-57.76270913 103.75557985 -57.46900346 101.69340223 -57 98 C-52.25295665 84.74497075 -40.98768079 71.11952858 -29.75 62.8125 C-24.13839127 58.11752855 -22.80906704 50.79681867 -21 44 C-20.75378906 43.0925 -20.50757813 42.185 -20.25390625 41.25 C-19.80290948 39.50821936 -19.39409849 37.75552962 -19 36 C-19.59425781 36.38671875 -20.18851563 36.7734375 -20.80078125 37.171875 C-29.15062668 42.41812314 -37.87757683 47.2653029 -48 46 C-50 44.9375 -50 44.9375 -51 43 C-52.21268169 35.42073946 -48.40276356 30.34542559 -44.16796875 24.44921875 C-42.19335031 21.88260425 -40.1411097 19.42902407 -38 17 C-37.46375 16.38253906 -36.9275 15.76507813 -36.375 15.12890625 C-28.21441866 6.94943468 -11.686057 -1.41079159 0 0 Z " fill="#1E467B" transform="translate(148,93)"/>
<path d="M0 0 C0.68324287 6.26305964 -0.31571631 9.58778348 -4.0546875 14.6484375 C-12.83052817 25.25698386 -24.95161998 36.34609659 -39 39 C-42.4375 39.3125 -42.4375 39.3125 -45 39 C-45.66 38.34 -46.32 37.68 -47 37 C-47 28.16452292 -41.20031943 22.05361637 -35.375 15.9375 C-27.85588011 8.67804941 -11.50626121 -5.7531306 0 0 Z " fill="#B8E0F7" transform="translate(147,97)"/>
<path d="M0 0 C0.86625 0.268125 1.7325 0.53625 2.625 0.8125 C2.955 1.8025 3.285 2.7925 3.625 3.8125 C5.605 3.1525 7.585 2.4925 9.625 1.8125 C9.955 2.8025 10.285 3.7925 10.625 4.8125 C8.6875 8 8.6875 8 6.625 10.8125 C8.06819692 9.90482898 9.50434106 8.98593894 10.9375 8.0625 C11.73800781 7.55203125 12.53851563 7.0415625 13.36328125 6.515625 C15.71003891 4.92055424 15.71003891 4.92055424 17.23046875 2.609375 C17.69066406 2.01640625 18.15085938 1.4234375 18.625 0.8125 C19.615 0.8125 20.605 0.8125 21.625 0.8125 C21.295 2.1325 20.965 3.4525 20.625 4.8125 C24.09441546 4.35427532 27.29895049 3.92118317 30.625 2.8125 C29.13402342 6.6077131 26.86799151 8.42292731 23.625 10.8125 C25.605 11.8025 27.585 12.7925 29.625 13.8125 C29.87378906 13.25046875 30.12257812 12.6884375 30.37890625 12.109375 C31.82959325 9.43538141 33.5568185 7.34830462 35.5625 5.0625 C36.25214844 4.26328125 36.94179687 3.4640625 37.65234375 2.640625 C39.625 0.8125 39.625 0.8125 42.625 0.8125 C42.74875 1.781875 42.8725 2.75125 43 3.75 C43.20625 4.760625 43.4125 5.77125 43.625 6.8125 C44.285 7.1425 44.945 7.4725 45.625 7.8125 C45.625 8.4725 45.625 9.1325 45.625 9.8125 C42.29166667 9.8125 38.95833333 9.8125 35.625 9.8125 C32.73099174 11.61921116 32.73099174 11.61921116 30.625 14.8125 C30.32710508 17.02604957 30.32710508 17.02604957 30.3125 19.4375 C29.9385865 27.24294428 24.54532078 32.54570048 19.55078125 38.1328125 C17.625 39.8125 17.625 39.8125 14.625 39.8125 C13.63387274 37.02495459 13.25149294 35.70095457 13.625 32.8125 C15.92857648 28.85697909 18.76941143 25.38064632 21.625 21.8125 C23.00548669 19.83821492 24.31395574 17.83369323 25.625 15.8125 C22.655 14.8225 19.685 13.8325 16.625 12.8125 C17.615 11.8225 18.605 10.8325 19.625 9.8125 C19.955 8.8225 20.285 7.8325 20.625 6.8125 C15.65485259 9.43695078 15.65485259 9.43695078 11.5 13.125 C10.88125 13.681875 10.2625 14.23875 9.625 14.8125 C7.125 14.625 7.125 14.625 4.625 13.8125 C3.3007713 13.44465869 1.96886088 13.10047019 0.625 12.8125 C0.295 13.1425 -0.035 13.4725 -0.375 13.8125 C-3.05038915 13.85565144 -5.70194821 13.85930441 -8.375 13.8125 C-9.365 13.8125 -10.355 13.8125 -11.375 13.8125 C-10.6015625 12.69875 -10.6015625 12.69875 -9.8125 11.5625 C-8.12557228 8.98034546 -8.12557228 8.98034546 -8.6875 6.5 C-8.914375 5.943125 -9.14125 5.38625 -9.375 4.8125 C-4.20576923 -0.23365385 -4.20576923 -0.23365385 0 0 Z " fill="#1B4379" transform="translate(156.375,120.1875)"/>
<path d="M0 0 C-0.6753725 4.53464393 -2.34254612 8.52615319 -4.1875 12.6875 C-4.50211182 13.39720947 -4.81672363 14.10691895 -5.14086914 14.83813477 C-9.15582069 23.73539695 -14.008246 34.01003409 -22 40 C-24.74609375 39.73828125 -24.74609375 39.73828125 -27 39 C-27.42632825 26.84964486 -17.89941023 16.74064642 -10.0625 8.25 C-8.38860052 6.48698645 -6.7033751 4.73455168 -5 3 C-4.44183594 2.39671875 -3.88367188 1.7934375 -3.30859375 1.171875 C-2 0 -2 0 0 0 Z " fill="#B5DDF5" transform="translate(121,158)"/>
<path d="M0 0 C0.12375 0.969375 0.2475 1.93875 0.375 2.9375 C0.58125 3.948125 0.7875 4.95875 1 6 C1.66 6.33 2.32 6.66 3 7 C3 7.66 3 8.32 3 9 C-0.33333333 9 -3.66666667 9 -7 9 C-9.89400826 10.80671116 -9.89400826 10.80671116 -12 14 C-12.29789492 16.21354957 -12.29789492 16.21354957 -12.3125 18.625 C-12.6864135 26.43044428 -18.07967922 31.73320048 -23.07421875 37.3203125 C-25 39 -25 39 -28 39 C-28.99112726 36.21245459 -29.37350706 34.88845457 -29 32 C-26.69642352 28.04447909 -23.85558857 24.56814632 -21 21 C-19.61951331 19.02571492 -18.31104426 17.02119323 -17 15 C-17.66 14.34 -18.32 13.68 -19 13 C-17.02 13 -15.04 13 -13 13 C-12.75121094 12.43796875 -12.50242188 11.8759375 -12.24609375 11.296875 C-10.79540675 8.62288141 -9.0681815 6.53580462 -7.0625 4.25 C-6.37285156 3.45078125 -5.68320313 2.6515625 -4.97265625 1.828125 C-3 0 -3 0 0 0 Z " fill="#1E467C" transform="translate(199,121)"/>
<path d="M0 0 C0.66 0.33 1.32 0.66 2 1 C0.576875 1.804375 0.576875 1.804375 -0.875 2.625 C-4.36739592 5.2792209 -5.04735876 6.80837855 -6 11 C-5.34 10.67 -4.68 10.34 -4 10 C-0.45768939 9.61496624 1.36257342 9.58064041 4.375 11.5625 C6.62340519 14.93510779 6.56783945 17.02512383 6 21 C4.4375 23.4375 4.4375 23.4375 2 25 C-2.31320149 25.70579661 -4.23133739 25.51801176 -7.875 23.0625 C-10.66003727 19.04876982 -11.4083176 15.85814615 -11 11 C-9.66696778 6.54784665 -7.30258225 3.90749288 -3.375 1.5 C-2.26125 1.005 -1.1475 0.51 0 0 Z " fill="#E1E4EC" transform="translate(176,249)"/>
<path d="M0 0 C2.4375 1.5625 2.4375 1.5625 4 4 C4.59992481 9.39932329 4.42160701 12.60079099 1 17 C-1.70883249 20.16030457 -4.00206278 21.80061883 -8 23 C-9.32 23 -10.64 23 -12 23 C-12 22.34 -12 21.68 -12 21 C-11.44570312 20.81824219 -10.89140625 20.63648438 -10.3203125 20.44921875 C-9.59585938 20.19785156 -8.87140625 19.94648438 -8.125 19.6875 C-7.40570313 19.44386719 -6.68640625 19.20023437 -5.9453125 18.94921875 C-3.66005095 18.03664453 -3.66005095 18.03664453 -2 15 C-3.27875 14.731875 -4.5575 14.46375 -5.875 14.1875 C-9.49675855 13.42809901 -9.80051868 13.29922197 -12 10 C-12.4375 6.5625 -12.4375 6.5625 -12 3 C-8.32083264 -1.4595968 -5.40244747 -1.57162108 0 0 Z " fill="#DEE3EB" transform="translate(142,260)"/>
<path d="M0 0 C0.50642877 2.0932389 0.99702669 4.19196688 1.39453125 6.30859375 C2.28259134 10.25616408 3.74261423 13.9452508 5.1953125 17.71484375 C6 20 6 20 6 22 C2.7881988 21.36208296 0.4460795 20.22006369 -2.328125 18.49609375 C-3.52695313 17.75649414 -3.52695313 17.75649414 -4.75 17.00195312 C-5.9875 16.22754883 -5.9875 16.22754883 -7.25 15.4375 C-8.09046875 14.91736328 -8.9309375 14.39722656 -9.796875 13.86132812 C-11.86756237 12.57891379 -13.93508572 11.29168194 -16 10 C-15.04795729 12.46094058 -14.08871944 14.91863604 -13.125 17.375 C-12.85558594 18.07367188 -12.58617188 18.77234375 -12.30859375 19.4921875 C-10.70845196 23.58897254 -10.70845196 23.58897254 -8 27 C-9.98 27.66 -11.96 28.32 -14 29 C-14.0825 27.741875 -14.165 26.48375 -14.25 25.1875 C-14.7781363 20.22144229 -16.3321209 15.91054108 -18.16015625 11.28515625 C-19 9 -19 9 -19 7 C-19.99 6.67 -20.98 6.34 -22 6 C-19.05372749 5.03804667 -16.91322316 4.60865057 -14.00488281 5.85498047 C-11.82165781 7.14441906 -9.72087951 8.51055853 -7.625 9.9375 C-6.88894531 10.41896484 -6.15289062 10.90042969 -5.39453125 11.39648438 C-3.58627038 12.5824217 -1.79171457 13.78920951 0 15 C0 11.90124328 -0.58261252 9.75578485 -1.5 6.8125 C-1.7784375 5.91144531 -2.056875 5.01039062 -2.34375 4.08203125 C-2.5603125 3.39496094 -2.776875 2.70789063 -3 2 C-3.99 2 -4.98 2 -6 2 C-6 1.34 -6 0.68 -6 0 C-3 -1 -3 -1 0 0 Z " fill="#EDEFF4" transform="translate(119,29)"/>
<path d="M0 0 C0.66 0.33 1.32 0.66 2 1 C1.34 3.31 0.68 5.62 0 8 C-0.33 7.34 -0.66 6.68 -1 6 C-3.64 6.33 -6.28 6.66 -9 7 C-9.66 9.64 -10.32 12.28 -11 15 C-9.2984375 15.433125 -9.2984375 15.433125 -7.5625 15.875 C-6.386875 16.24625 -5.21125 16.6175 -4 17 C-2.75453595 19.49092811 -3.2232422 20.41080733 -4 23 C-4.66 23 -5.32 23 -6 23 C-6.33 22.01 -6.66 21.02 -7 20 C-9.05094501 18.26480782 -11.09160398 16.65177847 -13.25 15.0625 C-14.40135207 14.19963278 -15.55239796 13.33635684 -16.703125 12.47265625 C-17.25806641 12.0564502 -17.81300781 11.64024414 -18.38476562 11.21142578 C-22.921875 7.80859375 -22.921875 7.80859375 -25 6 C-25 5.34 -25 4.68 -25 4 C-21.95872183 3.66274935 -18.91705809 3.33007668 -15.875 3 C-15.0190625 2.90460938 -14.163125 2.80921875 -13.28125 2.7109375 C-8.82977526 2.23154791 -4.48558075 1.88234542 0 2 C0 1.34 0 0.68 0 0 Z " fill="#EAEDF2" transform="translate(53,112)"/>
<path d="M0 0 C1.64666203 0.1135629 3.29236082 0.24117381 4.9375 0.375 C6.31228516 0.47941406 6.31228516 0.47941406 7.71484375 0.5859375 C8.84599609 0.79089844 8.84599609 0.79089844 10 1 C11.59863274 4.19726547 11.3692042 7.52170779 11 11 C9.56762553 14.61504034 8.07746372 17.56367456 5 20 C1.27348227 21.24217258 -2.12942074 21.5341253 -6 21 C-10.02633397 18.91227127 -12.40606313 17.25049833 -14 13 C-14.1953125 9.984375 -14.1953125 9.984375 -14.125 6.75 C-14.10695313 5.67234375 -14.08890625 4.5946875 -14.0703125 3.484375 C-14.04710938 2.66453125 -14.02390625 1.8446875 -14 1 C-11.03 1.495 -11.03 1.495 -8 2 C-8.99 2.556875 -8.99 2.556875 -10 3.125 C-12.26846565 4.88552667 -12.26846565 4.88552667 -12.5625 7.875 C-12.19338472 11.12982998 -12.19338472 11.12982998 -10.0625 13.875 C-5.93026533 16.74226488 -2.88106748 16.77955343 2 16 C5.01950153 15.20572041 5.01950153 15.20572041 7 13 C8.00391614 10.32112904 8.48801515 7.83918869 9 5 C4.545 5.495 4.545 5.495 0 6 C0 4.02 0 2.04 0 0 Z " fill="#EBEEF3" transform="translate(38,138)"/>
<path d="M0 0 C0.0928125 0.55429687 0.185625 1.10859375 0.28125 1.6796875 C1.19184626 4.61932977 2.6909941 6.64132387 4.5 9.125 C7.80249236 13.6862292 9.4016479 16.2042521 9.359375 22.02734375 C9 24 9 24 6.625 26.4375 C2.73061149 28.7555884 0.59628689 29.4750832 -4 29 C-6.23046875 27.20703125 -6.23046875 27.20703125 -8.1875 24.8125 C-8.84105469 24.03519531 -9.49460937 23.25789063 -10.16796875 22.45703125 C-12 20 -12 20 -13.6015625 17.28125 C-15.15137004 14.75307234 -16.26891194 14.03592995 -19 13 C-17.02 11.68 -15.04 10.36 -13 9 C-12.34 9.33 -11.68 9.66 -11 10 C-11.33 10.66 -11.66 11.32 -12 12 C-11.4225 12.77085938 -10.845 13.54171875 -10.25 14.3359375 C-9.5075 15.33882812 -8.765 16.34171875 -8 17.375 C-6.88625 18.87160156 -6.88625 18.87160156 -5.75 20.3984375 C-4 23 -4 23 -4 25 C0.0100934 25.17864631 0.0100934 25.17864631 4 25 C6.26245321 23.14266239 6.26245321 23.14266239 6.36328125 20.26953125 C5.9102332 16.19209882 4.51016054 14.04803407 2.1875 10.6875 C1.47980469 9.63949219 0.77210937 8.59148438 0.04296875 7.51171875 C-1.82064766 4.76176686 -1.82064766 4.76176686 -5 4 C-3.35 2.68 -1.7 1.36 0 0 Z " fill="#E9ECF1" transform="translate(87,40)"/>
<path d="M0 0 C4.57032432 1.16194686 6.38280698 2.63280698 9.6875 5.9375 C9.6875 6.5975 9.6875 7.2575 9.6875 7.9375 C7.1875 9.5625 7.1875 9.5625 4.6875 10.9375 C4.914375 10.174375 5.14125 9.41125 5.375 8.625 C5.97149746 5.95103208 5.97149746 5.95103208 4.5 4.0625 C2.72655974 2.69299896 2.72655974 2.69299896 0.5 3.25 C-0.098125 3.476875 -0.69625 3.70375 -1.3125 3.9375 C-1.58311005 8.06703916 -1.58311005 8.06703916 -0.25 11.875 C1.21670066 15.10174145 0.49730763 17.5736837 -0.3125 20.9375 C-3.3125 22.9375 -3.3125 22.9375 -6.625 22.875 C-11.2212825 21.7064536 -13.0237029 20.30651166 -16.3125 16.9375 C-16.3125 15.9475 -16.3125 14.9575 -16.3125 13.9375 C-13.8125 12.25 -13.8125 12.25 -11.3125 10.9375 C-11.539375 11.865625 -11.76625 12.79375 -12 13.75 C-12.62269468 16.84246845 -12.62269468 16.84246845 -11.1875 18.8125 C-8.77527487 20.25983508 -7.0773665 20.16167836 -4.3125 19.9375 C-4.05005333 16.26324667 -4.15036583 14.24879761 -5.875 10.9375 C-7.59420891 7.34958575 -7.50676593 5.69090722 -6.3125 1.9375 C-3.3125 -0.0625 -3.3125 -0.0625 0 0 Z " fill="#EAEDF2" transform="translate(227.3125,52.0625)"/>
<path d="M0 0 C3.54255142 1.2960554 4.68581703 2.6706815 6.5625 5.9375 C6.88470035 8.69921731 6.75208725 11.14108807 6.5625 13.9375 C4.5825 13.9375 2.6025 13.9375 0.5625 13.9375 C1.8825 13.2775 3.2025 12.6175 4.5625 11.9375 C3.9025 9.6275 3.2425 7.3175 2.5625 4.9375 C0.1712705 4.7261547 0.1712705 4.7261547 -2.4375 5.9375 C-3.72117013 8.16542917 -4.63599012 10.40413552 -5.54296875 12.80859375 C-6.4375 14.9375 -6.4375 14.9375 -8.4375 16.9375 C-11.3125 17.375 -11.3125 17.375 -14.4375 16.9375 C-16.8125 15.0625 -16.8125 15.0625 -18.4375 11.9375 C-18.75573703 8.5754798 -18.67275332 5.30292941 -18.4375 1.9375 C-16.4575 1.9375 -14.4775 1.9375 -12.4375 1.9375 C-12.4375 2.5975 -12.4375 3.2575 -12.4375 3.9375 C-14.0875 4.2675 -15.7375 4.5975 -17.4375 4.9375 C-16.7775 7.2475 -16.1175 9.5575 -15.4375 11.9375 C-13.7875 11.9375 -12.1375 11.9375 -10.4375 11.9375 C-10.11136719 11.23882812 -9.78523438 10.54015625 -9.44921875 9.8203125 C-9.01222656 8.91023437 -8.57523437 8.00015625 -8.125 7.0625 C-7.69574219 6.15757812 -7.26648438 5.25265625 -6.82421875 4.3203125 C-5.041765 1.25750465 -3.63925901 -0.09331433 0 0 Z " fill="#E8EBF1" transform="translate(269.4375,129.0625)"/>
<path d="M0 0 C0.66 0 1.32 0 2 0 C2.70045456 1.91197039 3.384919 3.82980435 4.0625 5.75 C4.44535156 6.81734375 4.82820313 7.8846875 5.22265625 8.984375 C5.98010011 11.92280042 6.07151741 13.22348948 5 16 C3.68 16 2.36 16 1 16 C1 15.34 1 14.68 1 14 C1.66 13.67 2.32 13.34 3 13 C2.67 10.69 2.34 8.38 2 6 C-0.97 6.66 -3.94 7.32 -7 8 C-6.67 9.98 -6.34 11.96 -6 14 C-5.01 14.33 -4.02 14.66 -3 15 C-4.98 15.66 -6.96 16.32 -9 17 C-9 16.34 -9 15.68 -9 15 C-8.34 15 -7.68 15 -7 15 C-7.66 13.35 -8.32 11.7 -9 10 C-11.64 10.66 -14.28 11.32 -17 12 C-16.67 14.64 -16.34 17.28 -16 20 C-14.35 20 -12.7 20 -11 20 C-11.66 20.66 -12.32 21.32 -13 22 C-14.32 22 -15.64 22 -17 22 C-17.69848264 20.06643218 -18.38344814 18.12797702 -19.0625 16.1875 C-19.44535156 15.10855469 -19.82820312 14.02960938 -20.22265625 12.91796875 C-21 10 -21 10 -20 7 C-19.0925 6.9175 -18.185 6.835 -17.25 6.75 C-11.66893559 5.95762666 -6.19045068 4.16951014 -1 2 C-0.67 1.34 -0.34 0.68 0 0 Z " fill="#E7EAF0" transform="translate(266,104)"/>
<path d="M0 0 C2.12570312 0.47603774 4.25054427 0.95592598 6.375 1.4375 C8.15003906 1.83775391 8.15003906 1.83775391 9.9609375 2.24609375 C13 3 13 3 15 4 C14.34 5.65 13.68 7.3 13 9 C12.67 7.68 12.34 6.36 12 5 C9.36 4.34 6.72 3.68 4 3 C3.34 5.97 2.68 8.94 2 12 C6.14093698 12.20970559 6.14093698 12.20970559 10 11 C9.34 13.31 8.68 15.62 8 18 C7.34 17.01 6.68 16.02 6 15 C3.43717258 14.27034634 3.43717258 14.27034634 1 14 C0.34 16.97 -0.32 19.94 -1 23 C0.8871875 23.309375 0.8871875 23.309375 2.8125 23.625 C3.52019531 23.74101563 4.22789062 23.85703125 4.95703125 23.9765625 C7.31755824 24.19577848 7.31755824 24.19577848 10 22 C9.67 23.65 9.34 25.3 9 27 C3.53135543 25.98408579 -1.76390013 24.92908943 -7 23 C-6.34 22.34 -5.68 21.68 -5 21 C-4.04778689 18.21261254 -3.18313983 15.45348941 -2.375 12.625 C-2.14554688 11.85671875 -1.91609375 11.0884375 -1.6796875 10.296875 C-0.61022215 6.61740494 0 3.89824752 0 0 Z " fill="#E7EAF0" transform="translate(177,27)"/>
<path d="M0 0 C4.02056219 3.50415971 6.24402136 7.62985697 8.75 12.25 C9.16121094 12.99507812 9.57242188 13.74015625 9.99609375 14.5078125 C11.00349544 16.33519231 12.00258786 18.16714863 13 20 C15.0943254 17.7263634 15.0943254 17.7263634 17 15 C16.86013727 11.26276567 16.86013727 11.26276567 16 8 C17.65 8.99 19.3 9.98 21 11 C19.23570801 15.97209562 16.6060834 20.43438061 14 25 C13.01 25 12.02 25 11 25 C9.6496582 23.25585937 9.6496582 23.25585937 8.30078125 20.84375 C7.57084961 19.55791016 7.57084961 19.55791016 6.82617188 18.24609375 C6.32666016 17.33988281 5.82714844 16.43367188 5.3125 15.5 C4.54583008 14.14068359 4.54583008 14.14068359 3.76367188 12.75390625 C2.49891114 10.50806943 1.24498921 8.25683911 0 6 C-2.10819555 8.82876478 -2.10819555 8.82876478 -4 12 C-3.39735818 14.84575944 -3.39735818 14.84575944 -2 17 C-3.98 16.34 -5.96 15.68 -8 15 C-6.85657478 12.68628057 -5.71038936 10.37400323 -4.5625 8.0625 C-4.23701172 7.40314453 -3.91152344 6.74378906 -3.57617188 6.06445312 C-1.11328125 1.11328125 -1.11328125 1.11328125 0 0 Z " fill="#E7EAF0" transform="translate(43,83)"/>
<path d="M0 0 C1.60781893 0.7631861 3.21113138 1.53587058 4.8125 2.3125 C5.70582031 2.74175781 6.59914062 3.17101563 7.51953125 3.61328125 C9.83578135 4.90819273 11.41992165 5.87726848 13 8 C12.55555556 14.44444444 12.55555556 14.44444444 11 16 C9.33382885 16.04063832 7.66611905 16.042721 6 16 C6 15.34 6 14.68 6 14 C6.66 14 7.32 14 8 14 C8 11.69 8 9.38 8 7 C6.68 6.67 5.36 6.34 4 6 C1.83812357 9.30584098 1.83812357 9.30584098 0.5625 13 C-0.24578443 15.87390019 -2.1495229 17.68690363 -4 20 C-4.77833534 22.18214568 -4.77833534 22.18214568 -5 24 C-7.02045442 23.39816251 -9.02111039 22.72693904 -11 22 C-11.33 21.34 -11.66 20.68 -12 20 C-10.68 20 -9.36 20 -8 20 C-7.60167969 18.93458984 -7.60167969 18.93458984 -7.1953125 17.84765625 C-5.54207035 13.90904995 -3.38211918 10.31221992 -1.2421875 6.62109375 C0.28550667 3.88098716 0.28550667 3.88098716 0 0 Z " fill="#E0E4EC" transform="translate(202,35)"/>
<path d="M0 0 C2.64 0 5.28 0 8 0 C7.01 0.495 7.01 0.495 6 1 C7.65 6.61 9.3 12.22 11 18 C11.99 15.9375 12.98 13.875 14 11.75 C14.556875 10.58984375 15.11375 9.4296875 15.6875 8.234375 C17.25067787 4.96401402 17.25067787 4.96401402 17 1 C19.31 1 21.62 1 24 1 C23.01 1.33 22.02 1.66 21 2 C20.27514244 3.97965299 19.62286209 5.98592769 19 8 C17.71322384 10.83647198 16.29377756 13.6026184 14.875 16.375 C14.50246094 17.11105469 14.12992188 17.84710938 13.74609375 18.60546875 C12.8343878 20.40550358 11.91770068 22.20301402 11 24 C10.01 24 9.02 24 8 24 C6.99572108 20.54289448 5.9973056 17.08412303 5 13.625 C4.71382812 12.64015625 4.42765625 11.6553125 4.1328125 10.640625 C3.72675781 9.22910156 3.72675781 9.22910156 3.3125 7.7890625 C3.06113281 6.91975098 2.80976563 6.05043945 2.55078125 5.15478516 C2 3 2 3 2 1 C1.34 0.67 0.68 0.34 0 0 Z " fill="#EEF0F4" transform="translate(145,24)"/>
<path d="M0 0 C4.15591729 1.38530576 5.17786565 4.23367338 7.1875 7.875 C7.55552734 8.51308594 7.92355469 9.15117188 8.30273438 9.80859375 C11 14.60262059 11 14.60262059 11 18 C9.35 18.33 7.7 18.66 6 19 C6.5259375 18.13375 6.5259375 18.13375 7.0625 17.25 C8.16577711 14.60213494 7.80156509 13.66814674 7 11 C5.27009975 11.93614567 3.54111304 12.87397958 1.8125 13.8125 C0.84957031 14.33457031 -0.11335937 14.85664062 -1.10546875 15.39453125 C-3.00913707 16.45041206 -4.88858826 17.55140641 -6.73828125 18.69921875 C-9 20 -9 20 -11 20 C-11 21.65 -11 23.3 -11 25 C-15.42857143 19.85714286 -15.42857143 19.85714286 -16 16 C-15.12359863 16.30538696 -15.12359863 16.30538696 -14.22949219 16.61694336 C-11.47155283 17.09079431 -10.66277546 16.59812594 -8.328125 15.12890625 C-7.66425781 14.71962891 -7.00039062 14.31035156 -6.31640625 13.88867188 C-5.63449219 13.45103516 -4.95257813 13.01339844 -4.25 12.5625 C-3.20392578 11.9118457 -3.20392578 11.9118457 -2.13671875 11.24804688 C-0.41750114 10.17647973 1.292203 9.08967644 3 8 C2.67 6.35 2.34 4.7 2 3 C0.35 3 -1.3 3 -3 3 C-2.01 2.01 -1.02 1.02 0 0 Z " fill="#E7E9F0" transform="translate(252,78)"/>
<path d="M0 0 C3.875 0.875 3.875 0.875 5 2 C4.71269945 4.33944736 4.38063221 6.6739143 4 9 C3.34 9 2.68 9 2 9 C2 9.66 2 10.32 2 11 C2.99 11.33 3.98 11.66 5 12 C3.68 12 2.36 12 1 12 C1.14076315 13.9587043 1.2877676 15.91696093 1.4375 17.875 C1.55931641 19.51082031 1.55931641 19.51082031 1.68359375 21.1796875 C1.83001703 23.94728971 1.83001703 23.94728971 3 26 C-1.875 24.25 -1.875 24.25 -3 22 C-3.34011997 19.40694864 -3.60486376 16.85361845 -3.8125 14.25 C-3.88919922 13.54617187 -3.96589844 12.84234375 -4.04492188 12.1171875 C-4.4607281 6.7267357 -3.39952876 4.19825299 0 0 Z " fill="#DADFE8" transform="translate(206,40)"/>
<path d="M0 0 C2.05078125 0.03255208 4.1015625 0.06510417 6.15234375 0.09765625 C5.16234375 0.59265625 5.16234375 0.59265625 4.15234375 1.09765625 C4.29671875 2.02707031 4.44109375 2.95648437 4.58984375 3.9140625 C4.77546875 5.15027344 4.96109375 6.38648438 5.15234375 7.66015625 C5.33796875 8.87832031 5.52359375 10.09648438 5.71484375 11.3515625 C6.13789452 14.97393473 6.227358 18.45477671 6.15234375 22.09765625 C7.14234375 22.09765625 8.13234375 22.09765625 9.15234375 22.09765625 C9.15234375 22.75765625 9.15234375 23.41765625 9.15234375 24.09765625 C6.18234375 24.42765625 3.21234375 24.75765625 0.15234375 25.09765625 C0.48234375 24.43765625 0.81234375 23.77765625 1.15234375 23.09765625 C1.81234375 23.09765625 2.47234375 23.09765625 3.15234375 23.09765625 C2.93578125 22.08445312 2.71921875 21.07125 2.49609375 20.02734375 C2.21453176 18.67584621 1.93329925 17.32428 1.65234375 15.97265625 C1.50925781 15.3075 1.36617187 14.64234375 1.21875 13.95703125 C0.39111545 9.93709203 -0.00096283 6.19860726 0.15234375 2.09765625 C-0.83765625 1.76765625 -1.82765625 1.43765625 -2.84765625 1.09765625 C-1.84765625 0.09765625 -1.84765625 0.09765625 0 0 Z " fill="#D5DBE5" transform="translate(130.84765625,24.90234375)"/>
<path d="M0 0 C1.875 -0.36328125 1.875 -0.36328125 4 -0.3125 C4.70125 -0.30863281 5.4025 -0.30476563 6.125 -0.30078125 C8 0 8 0 10 2 C9.9375 4.875 9.9375 4.875 9 8 C6.4375 10.375 6.4375 10.375 4 12 C6.97 12.495 6.97 12.495 10 13 C10.33 12.01 10.66 11.02 11 10 C11.33 10 11.66 10 12 10 C12 11.98 12 13.96 12 16 C7.38 16 2.76 16 -2 16 C-2 15.34 -2 14.68 -2 14 C-0.46875 12.4921875 -0.46875 12.4921875 1.5 10.875 C2.1496875 10.33617187 2.799375 9.79734375 3.46875 9.2421875 C4.22671875 8.62730469 4.22671875 8.62730469 5 8 C4.67 6.35 4.34 4.7 4 3 C2.02 3 0.04 3 -2 3 C-1.34 2.01 -0.68 1.02 0 0 Z " fill="#DCE0E9" transform="translate(151,260)"/>
<path d="M0 0 C0.9075 0.28875 1.815 0.5775 2.75 0.875 C3.75 2.875 3.75 2.875 3 5.8125 C1.22483589 10.16165208 1.22483589 10.16165208 -1.25 11.875 C-2.57 11.875 -3.89 11.875 -5.25 11.875 C-5.91 10.225 -6.57 8.575 -7.25 6.875 C-7.91 7.535 -8.57 8.195 -9.25 8.875 C-8.96454928 5.44959134 -8.42638186 4.0665003 -6.0625 1.5 C-3.25 -0.125 -3.25 -0.125 0 0 Z " fill="#284F83" transform="translate(156.25,120.125)"/>
<path d="M0 0 C0.26498291 0.60303955 0.52996582 1.2060791 0.80297852 1.82739258 C2.05024179 4.09118941 3.13057511 5.18799721 5.15234375 6.76171875 C5.76400391 7.24060547 6.37566406 7.71949219 7.00585938 8.21289062 C7.64330078 8.69951172 8.28074219 9.18613281 8.9375 9.6875 C9.57107422 10.18572266 10.20464844 10.68394531 10.85742188 11.19726562 C13.61759511 13.33632732 15.64938477 14.88312826 19 16 C17.35 17.65 15.7 19.3 14 21 C13.80148438 20.44699219 13.60296875 19.89398438 13.3984375 19.32421875 C11.4316094 16.05532848 8.62984081 14.06613061 5.625 11.8125 C5.0475 11.36197266 4.47 10.91144531 3.875 10.44726562 C1.02282137 8.27557253 -1.38253408 6.45441074 -5 6 C-3.35 4.02 -1.7 2.04 0 0 Z " fill="#E8EBF1" transform="translate(53,69)"/>
<path d="M0 0 C1.65 1.32 3.3 2.64 5 4 C4 6 4 6 1.79296875 6.8125 C-1.71902096 8.30570961 -3.91076823 10.39373607 -6.6875 13 C-7.64011719 13.886875 -8.59273437 14.77375 -9.57421875 15.6875 C-11.06511689 17.10877488 -12.54349742 18.54349742 -14 20 C-15.32 18.68 -16.64 17.36 -18 16 C-17.67 15.34 -17.34 14.68 -17 14 C-16.44699219 13.89429687 -15.89398438 13.78859375 -15.32421875 13.6796875 C-11.87831652 12.67197828 -9.49705383 10.41124247 -6.8125 8.125 C-5.99362305 7.45404297 -5.99362305 7.45404297 -5.15820312 6.76953125 C-2.53229502 4.56337797 -1.10451791 3.31355372 0 0 Z " fill="#E9ECF1" transform="translate(243,66)"/>
<path d="M0 0 C2.625 0.3125 2.625 0.3125 4.5 1.875 C6.07214679 5.28131805 5.38594211 7.71531913 4.625 11.3125 C1.8125 11.625 1.8125 11.625 -1.375 11.3125 C-3.3125 9.125 -3.3125 9.125 -4.375 6.3125 C-3.84715496 0.5062046 -3.84715496 0.5062046 0 0 Z " fill="#1C4177" transform="translate(173.375,260.6875)"/>
<path d="M0 0 C0.66 0.66 1.32 1.32 2 2 C4.0988527 2.29349883 4.0988527 2.29349883 6.5 2.23046875 C7.386875 2.22853516 8.27375 2.22660156 9.1875 2.22460938 C10.115625 2.21236328 11.04375 2.20011719 12 2.1875 C12.928125 2.18685547 13.85625 2.18621094 14.8125 2.18554688 C19.56382549 2.329909 19.56382549 2.329909 24 1 C24 3.64 24 6.28 24 9 C23.34 8.67 22.68 8.34 22 8 C22 7.34 22 6.68 22 6 C15.07 6 8.14 6 1 6 C0.67 6.66 0.34 7.32 0 8 C0 5.36 0 2.72 0 0 Z " fill="#F0F2F6" transform="translate(252,151)"/>
<path d="M0 0 C2.5625 0.1875 2.5625 0.1875 4.5625 2.1875 C4.89002234 4.90204956 4.6933425 7.43980759 4.5625 10.1875 C3.5625 11.1875 3.5625 11.1875 0.5625 11.3125 C-2.4375 11.1875 -2.4375 11.1875 -3.4375 10.1875 C-3.5354057 8.69011876 -3.56724864 7.18807108 -3.5625 5.6875 C-3.56507813 4.8728125 -3.56765625 4.058125 -3.5703125 3.21875 C-3.37440673 0.2225441 -3.00673063 0.23128697 0 0 Z " fill="#173D74" transform="translate(137.4375,260.8125)"/>
<path d="M0 0 C2.64 0 5.28 0 8 0 C7.855625 0.66386719 7.71125 1.32773437 7.5625 2.01171875 C7.376875 2.89472656 7.19125 3.77773438 7 4.6875 C6.814375 5.55761719 6.62875 6.42773438 6.4375 7.32421875 C5.8679352 10.80771778 5.39311838 13.78623676 7 17 C2.545 16.01 2.545 16.01 -2 15 C-1.01 14.34 -0.02 13.68 1 13 C1.65973834 10.41667625 1.65973834 10.41667625 1.8125 7.5 C1.90144531 6.5203125 1.99039063 5.540625 2.08203125 4.53125 C2.2831983 1.82731011 2.2831983 1.82731011 0 0 Z " fill="#D9DEE8" transform="translate(119,257)"/>
<path d="M0 0 C3.875 0.875 3.875 0.875 5 2 C4.71269945 4.33944736 4.38063221 6.6739143 4 9 C1.6875 9.625 1.6875 9.625 -1 10 C-1.99 9.34 -2.98 8.68 -4 8 C-2.87548273 5.0280615 -1.77706209 2.66559313 0 0 Z " fill="#1A4076" transform="translate(206,40)"/>
<path d="M0 0 C1.64666203 0.1135629 3.29236082 0.24117381 4.9375 0.375 C5.85402344 0.44460937 6.77054688 0.51421875 7.71484375 0.5859375 C8.84599609 0.79089844 8.84599609 0.79089844 10 1 C11.60725635 4.21451269 11.05748185 7.43612536 11 11 C10.34 10.34 9.68 9.68 9 9 C9 7.68 9 6.36 9 5 C4.545 5.495 4.545 5.495 0 6 C0 4.02 0 2.04 0 0 Z " fill="#D5DBE5" transform="translate(38,138)"/>
<path d="M0 0 C3.375 0.3125 3.375 0.3125 7 1 C9.46324069 4.69486103 9.38991688 6.63293092 9 11 C7.5 12.9375 7.5 12.9375 6 14 C5.34 13.67 4.68 13.34 4 13 C4.4021875 11.453125 4.4021875 11.453125 4.8125 9.875 C5.0089273 5.81550241 4.99427116 5.42461268 2.5625 2.5625 C1.716875 1.716875 0.87125 0.87125 0 0 Z " fill="#F3F4F7" transform="translate(173,259)"/>
<path d="M0 0 C1.32 0.66 2.64 1.32 4 2 C3.63487253 4.7019433 3.30130763 6.58390852 1.6875 8.8125 C0 10 0 10 -4 10 C-3.43454163 6.04179141 -2.19097652 3.3340947 0 0 Z " fill="#AFD7F0" transform="translate(155,122)"/>
<path d="M0 0 C2.31 0 4.62 0 7 0 C6.01 0.33 5.02 0.66 4 1 C3.28771856 2.98421259 2.63484067 4.98967123 2 7 C0.41122971 10.37362299 -1.2854853 13.68876169 -3 17 C-3.66 16.34 -4.32 15.68 -5 15 C-4.6390625 14.25234375 -4.278125 13.5046875 -3.90625 12.734375 C-3.21015625 11.25710937 -3.21015625 11.25710937 -2.5 9.75 C-2.0359375 8.77546875 -1.571875 7.8009375 -1.09375 6.796875 C0.24280211 3.87964224 0.24280211 3.87964224 0 0 Z " fill="#DEE2EB" transform="translate(162,25)"/>
<path d="M0 0 C0.12375 0.969375 0.2475 1.93875 0.375 2.9375 C0.58125 3.948125 0.7875 4.95875 1 6 C1.66 6.33 2.32 6.66 3 7 C3 7.66 3 8.32 3 9 C0.1875 9.25 0.1875 9.25 -3 9 C-4.875 7 -4.875 7 -6 5 C-1.125 0 -1.125 0 0 0 Z " fill="#123971" transform="translate(199,121)"/>
<path d="M0 0 C0.6953125 1.890625 0.6953125 1.890625 1.125 4.25 C1.2796875 5.05824219 1.434375 5.86648437 1.59375 6.69921875 C1.79484375 7.83810547 1.79484375 7.83810547 2 9 C2.20625 10.010625 2.4125 11.02125 2.625 12.0625 C2.74875 12.701875 2.8725 13.34125 3 14 C2.01 14.495 2.01 14.495 1 15 C0.32942113 13.2097939 -0.3363469 11.41778511 -1 9.625 C-1.37125 8.62726562 -1.7425 7.62953125 -2.125 6.6015625 C-3 4 -3 4 -3 2 C-3.99 2 -4.98 2 -6 2 C-6 1.34 -6 0.68 -6 0 C-3 -1 -3 -1 0 0 Z " fill="#E9ECF1" transform="translate(119,29)"/>
<path d="M0 0 C0.66 0.33 1.32 0.66 2 1 C1.67 1.99 1.34 2.98 1 4 C-1.50390625 5.16796875 -1.50390625 5.16796875 -4.5625 6.1875 C-5.57441406 6.53167969 -6.58632812 6.87585938 -7.62890625 7.23046875 C-8.41136719 7.48441406 -9.19382812 7.73835937 -10 8 C-10 7.34 -10 6.68 -10 6 C-10.66 5.67 -11.32 5.34 -12 5 C-10.82630859 4.58427734 -10.82630859 4.58427734 -9.62890625 4.16015625 C-8.61699219 3.79792969 -7.60507813 3.43570313 -6.5625 3.0625 C-5.55316406 2.70285156 -4.54382813 2.34320313 -3.50390625 1.97265625 C-1.09686255 1.23122361 -1.09686255 1.23122361 0 0 Z " fill="#234B7F" transform="translate(120,130)"/>
<path d="M0 0 C-0.33 1.98 -0.66 3.96 -1 6 C-4.79588866 5.45773019 -6.47211993 3.79872437 -9 1 C-6.04335481 -0.4783226 -3.25770263 -0.06032783 0 0 Z " fill="#385887" transform="translate(42,118)"/>
<path d="M0 0 C0.66 0.33 1.32 0.66 2 1 C0.67909475 2.67653359 -0.65807132 4.34024611 -2 6 C-2.72316406 6.91845703 -2.72316406 6.91845703 -3.4609375 7.85546875 C-3.96882812 8.48066406 -4.47671875 9.10585937 -5 9.75 C-5.474375 10.34296875 -5.94875 10.9359375 -6.4375 11.546875 C-8.25257165 13.23489163 -9.58255856 13.60403976 -12 14 C-11.34 13.67 -10.68 13.34 -10 13 C-9.71382812 12.41734375 -9.42765625 11.8346875 -9.1328125 11.234375 C-7.74166709 8.49046061 -5.94510113 6.52043349 -3.875 4.25 C-3.15054688 3.45078125 -2.42609375 2.6515625 -1.6796875 1.828125 C-0.84824219 0.92320313 -0.84824219 0.92320313 0 0 Z " fill="#295084" transform="translate(196,121)"/>
<path d="M0 0 C0.99 0.33 1.98 0.66 3 1 C2.125 7.875 2.125 7.875 1 9 C-0.66617115 9.04063832 -2.33388095 9.042721 -4 9 C-4 8.34 -4 7.68 -4 7 C-3.34 7 -2.68 7 -2 7 C-1.34 4.69 -0.68 2.38 0 0 Z " fill="#EEF0F4" transform="translate(212,42)"/>
<path d="M0 0 C0.66 0 1.32 0 2 0 C2.598125 0.639375 3.19625 1.27875 3.8125 1.9375 C6.26700181 4.25174456 7.70523261 4.63391473 11 5 C10.67 6.98 10.34 8.96 10 11 C9.34 11 8.68 11 8 11 C7.67 10.01 7.34 9.02 7 8 C5.23947135 6.61521967 3.39227023 5.47160626 1.49609375 4.28125 C1.00238281 3.8584375 0.50867187 3.435625 0 3 C0 2.01 0 1.02 0 0 Z " fill="#DBDFE9" transform="translate(39,124)"/>
<path d="M0 0 C2.02218559 3.03327838 3.04968906 5.74827731 4.21875 9.16015625 C4.9486829 11.19834017 4.9486829 11.19834017 7 13 C5.02 13.66 3.04 14.32 1 15 C0.67 10.05 0.34 5.1 0 0 Z " fill="#DADFE8" transform="translate(104,43)"/>
<path d="M0 0 C0.33 0 0.66 0 1 0 C1.45572917 2.01822917 1.91145833 4.03645833 2.3671875 6.0546875 C2.90474428 8.20719964 2.90474428 8.20719964 5 10 C2.625 10.1875 2.625 10.1875 0 10 C-2.14915785 6.77626323 -2.38286803 5.73296326 -2 2 C-1.34 1.34 -0.68 0.68 0 0 Z " fill="#F4F5F8" transform="translate(132,263)"/>
<path d="M0 0 C-2 2 -2 2 -4.625 2.125 C-5.40875 2.08375 -6.1925 2.0425 -7 2 C-7.33 4.31 -7.66 6.62 -8 9 C-8.33 9 -8.66 9 -9 9 C-9.33 7.35 -9.66 5.7 -10 4 C-10.99 4.495 -10.99 4.495 -12 5 C-9.30839269 -1.21140148 -6.29369588 -1.18748979 0 0 Z " fill="#CAD0DE" transform="translate(142,260)"/>
<path d="M0 0 C0.66 0.66 1.32 1.32 2 2 C0.948125 3.5778125 0.948125 3.5778125 -0.125 5.1875 C-1.96322081 8.31356229 -1.96322081 8.31356229 -1.25 11.9375 C-0.8375 12.618125 -0.425 13.29875 0 14 C-1.98 13.34 -3.96 12.68 -6 12 C-4.02 8.04 -2.04 4.08 0 0 Z " fill="#D7DCE7" transform="translate(41,86)"/>
<path d="M0 0 C0.67578125 1.765625 0.67578125 1.765625 1 4 C-0.14453125 5.921875 -0.14453125 5.921875 -1.8125 7.75 C-2.62654297 8.67039063 -2.62654297 8.67039063 -3.45703125 9.609375 C-5 11 -5 11 -7 11 C-5.5140084 6.40693504 -3.14985318 3.56430755 0 0 Z " fill="#A5CDE8" transform="translate(180,143)"/>
<path d="M0 0 C-1.59720719 4.3124594 -4.31633819 6.42143673 -8 9 C-10.1953125 8.63671875 -10.1953125 8.63671875 -12 8 C-10.37982158 6.66081194 -8.75370657 5.3288031 -7.125 4 C-6.22007812 3.2575 -5.31515625 2.515 -4.3828125 1.75 C-2 0 -2 0 0 0 Z " fill="#284F83" transform="translate(146,134)"/>
<path d="M0 0 C1.90318884 2.85478326 2.4619099 4.41941308 3.125 7.6875 C3.29257812 8.49574219 3.46015625 9.30398437 3.6328125 10.13671875 C3.75398438 10.75160156 3.87515625 11.36648437 4 12 C2.35 12.33 0.7 12.66 -1 13 C-1 12.34 -1 11.68 -1 11 C-0.34 10.67 0.32 10.34 1 10 C0.74438677 7.6568787 0.40729228 5.32156597 0 3 C-0.66 2.67 -1.32 2.34 -2 2 C-1.34 2 -0.68 2 0 2 C0 1.34 0 0.68 0 0 Z " fill="#CDD3E0" transform="translate(268,107)"/>
<path d="M0 0 C2.97 0.495 2.97 0.495 6 1 C5.34 1.37125 4.68 1.7425 4 2.125 C1.68059647 3.8893691 1.68059647 3.8893691 1.6875 7 C1.89563581 10.04730176 1.89563581 10.04730176 3 13 C2.01 13.495 2.01 13.495 1 14 C-0.38226016 11.23547967 -0.09525387 8.9538637 -0.0625 5.875 C-0.05347656 4.77929688 -0.04445313 3.68359375 -0.03515625 2.5546875 C-0.02355469 1.71164063 -0.01195313 0.86859375 0 0 Z " fill="#E0E4EC" transform="translate(24,139)"/>
<path d="M0 0 C0.103125 0.639375 0.20625 1.27875 0.3125 1.9375 C0.539375 2.618125 0.76625 3.29875 1 4 C1.99 4.33 2.98 4.66 4 5 C1.33333333 5.66666667 -1.33333333 6.33333333 -4 7 C-4 4 -4 4 -2 1.8125 C-1.34 1.214375 -0.68 0.61625 0 0 Z " fill="#20487D" transform="translate(150,128)"/>
<path d="M0 0 C3.57104439 1.87949705 5.54744301 3.17053157 7 7 C4.525 8.485 4.525 8.485 2 10 C2.226875 9.236875 2.45375 8.47375 2.6875 7.6875 C2.790625 6.800625 2.89375 5.91375 3 5 C1.62485459 3.2912354 1.62485459 3.2912354 0 2 C0 1.34 0 0.68 0 0 Z " fill="#C9D0DE" transform="translate(230,53)"/>
<path d="M0 0 C0.66 0 1.32 0 2 0 C1.71872579 1.48117801 1.42466268 2.95993249 1.125 4.4375 C0.96257812 5.26121094 0.80015625 6.08492187 0.6328125 6.93359375 C0.31957031 7.95646484 0.31957031 7.95646484 0 9 C-0.99 9.495 -0.99 9.495 -2 10 C-2.25 3.375 -2.25 3.375 0 0 Z " fill="#1B4379" transform="translate(94,185)"/>
<path d="M0 0 C0 0.99 0 1.98 0 3 C0.165 3.66 0.33 4.32 0.5 5 C1 7 1 7 1 10 C-1.5 8.1875 -1.5 8.1875 -4 6 C-4 5.01 -4 4.02 -4 3 C-2 1.3125 -2 1.3125 0 0 Z " fill="#CAD1DF" transform="translate(215,63)"/>
<path d="M0 0 C2.475 0.495 2.475 0.495 5 1 C5 2.32 5 3.64 5 5 C3.35 4.67 1.7 4.34 0 4 C0 2.68 0 1.36 0 0 Z " fill="#194177" transform="translate(207,106)"/>
<path d="M0 0 C0.66666667 2.66666667 1.33333333 5.33333333 2 8 C-1 7 -1 7 -3 5 C-3.66 4.67 -4.32 4.34 -5 4 C-3.35 2.68 -1.7 1.36 0 0 Z " fill="#DDE1EA" transform="translate(87,40)"/>
<path d="M0 0 C0.66 0.33 1.32 0.66 2 1 C1.071875 1.5775 0.14375 2.155 -0.8125 2.75 C-3.59815842 4.71634712 -5.18738696 6.18037972 -7 9 C-7.33 7.68 -7.66 6.36 -8 5 C-6.71475739 4.13619741 -5.42157581 3.28419631 -4.125 2.4375 C-3.04605469 1.72400391 -3.04605469 1.72400391 -1.9453125 0.99609375 C-1.30335938 0.66738281 -0.66140625 0.33867187 0 0 Z " fill="#D8DDE7" transform="translate(176,249)"/>
<path d="M0 0 C0.66 0.99 1.32 1.98 2 3 C1.01858061 5.45354848 0.27754408 6.79646768 -1.875 8.375 C-4 9 -4 9 -6.25 8.125 C-6.8275 7.75375 -7.405 7.3825 -8 7 C-7.05125 6.773125 -6.1025 6.54625 -5.125 6.3125 C-1.80676612 5.30916286 -1.80676612 5.30916286 -0.625 2.375 C-0.41875 1.59125 -0.2125 0.8075 0 0 Z " fill="#C8CFDD" transform="translate(94,59)"/>
<path d="M0 0 C0.33 0 0.66 0 1 0 C1 2.64 1 5.28 1 8 C-0.98 8 -2.96 8 -5 8 C-4.0409375 7.690625 -4.0409375 7.690625 -3.0625 7.375 C-0.65074923 6.10461791 -0.65074923 6.10461791 -0.25 2.875 C-0.1675 1.92625 -0.085 0.9775 0 0 Z " fill="#D5DBE5" transform="translate(275,135)"/>
<path d="M0 0 C2.31 0.66 4.62 1.32 7 2 C6.34 3.65 5.68 5.3 5 7 C4.67 5.68 4.34 4.36 4 3 C2.35 2.67 0.7 2.34 -1 2 C-0.67 1.34 -0.34 0.68 0 0 Z " fill="#DBDFE9" transform="translate(185,29)"/>
<path d="M0 0 C0 1.65 0 3.3 0 5 C-0.99 4.67 -1.98 4.34 -3 4 C-3 3.34 -3 2.68 -3 2 C-3.99 2 -4.98 2 -6 2 C-6 1.34 -6 0.68 -6 0 C-3 -1 -3 -1 0 0 Z " fill="#CCD3E0" transform="translate(119,29)"/>
<path d="M0 0 C0.33 0.66 0.66 1.32 1 2 C0.0625 4.625 0.0625 4.625 -1 7 C-1.66 6.01 -2.32 5.02 -3 4 C-5.56282742 3.27034634 -5.56282742 3.27034634 -8 3 C-8 2.67 -8 2.34 -8 2 C-6.865625 1.855625 -5.73125 1.71125 -4.5625 1.5625 C-1.19222799 1.38828522 -1.19222799 1.38828522 0 0 Z " fill="#D3D8E4" transform="translate(186,38)"/>
<path d="M0 0 C-3.4019487 2.09350689 -6.05272412 2.17942163 -10 2 C-10 1.34 -10 0.68 -10 0 C-6.7169902 -1.6415049 -3.57454967 -0.51888624 0 0 Z " fill="#F8F9FB" transform="translate(159,274)"/>
</svg>
